<svg id="Layer_1" enable-background="new 0 0 64 64" height="512" viewBox="0 0 64 64" width="512" xmlns="http://www.w3.org/2000/svg"><g><path d="m63.35 42.19c-.8-1.27-2.2-1.98-3.62-1.97v-25.44c0-.54-.43-.97-.97-.97h-5.52c-.54 0-.97.43-.97.97v28.4l-3.81 1.73v-23.65c0-.54-.43-.97-.97-.97h-5.52c-.54 0-.97.43-.97.97v21.56c-.11-.01-.22-.03-.34-.03h-3.48v-16.43c0-.54-.43-.97-.97-.97h-5.51c-.54 0-.97.43-.97.97v15.74l-3.82-2.01v-7.91c0-.54-.43-.97-.97-.97h-5.51c-.54 0-.97.43-.97.97v5.74h-3.88v-1.7c0-.54-.43-.97-.97-.97h-10.94c-.51 0-.93.39-.97.9l-1.7 22.36c-.02.27.07.53.26.73.18.2.44.31.71.31h12.64c.54 0 .97-.43.97-.97v-1.78h4.35c.34 0 .67.06.99.18l11.76 4.25c.86.31 1.75.46 2.64.46 1.26 0 2.51-.3 3.63-.91l23.79-12.57c1.39-.74 2.26-2.18 2.26-3.76 0-.81-.22-1.59-.65-2.26zm-9.14-26.44h3.58v24.91l-3.58 1.63zm-11.26 6.48h3.58v23.57l-2.15.98c.01-.09.03-.18.03-.27 0-1.19-.58-2.25-1.45-2.93v-21.35zm-7.7 5.1v15.45h-3.49c-.03 0-.06-.01-.08-.01v-15.44zm-14.85 5.82h3.57v5.92l-1.12-.59c-.7-.37-1.48-.56-2.26-.56h-.19zm-7.76 24.46h-10.62l1.55-20.42h9.07zm48.2-11.12-23.8 12.57c-1.44.77-3.16.89-4.71.33l-11.75-4.25c-.53-.19-1.09-.29-1.65-.29h-4.35v-15h6.01c.47 0 .94.12 1.36.34l7.54 3.97c.7.36 1.49.56 2.26.56h8.92c.99 0 1.79.8 1.79 1.78 0 .61-.29 1.03-.52 1.27-.11.11-.25.21-.4.3l-.12.06c-.24.11-.49.17-.74.17h-11.5c-1.88 0-3.4 1.53-3.4 3.4 0 .54.43.97.97.97s.97-.43.97-.97c0-.81.66-1.46 1.46-1.46h11.5c.53 0 1.06-.12 1.55-.34l.2-.09s.01 0 .01-.01l5.43-2.47c.01 0 .01-.01.02-.01l5.73-2.61c.01 0 .02-.01.02-.01l5.16-2.35c1.05-.48 2.3-.1 2.92.88.23.36.35.79.35 1.23-.01.85-.48 1.63-1.23 2.03z"/><path d="m22.18 28.42c.25 0 .5-.09.69-.28l10.99-10.99h10.88c.26 0 .5-.1.69-.28l11.14-11.16-.09 2.5c-.02.54.4.98.93 1h.04c.52 0 .95-.41.97-.93l.18-4.97c0-.01 0-.01 0-.02 0-.1-.02-.2-.05-.3-.01-.02-.01-.05-.01-.08-.05-.12-.12-.23-.21-.33-.1-.1-.21-.17-.33-.21-.03-.01-.05-.01-.08-.02-.1-.03-.2-.05-.3-.05-.01 0-.01 0-.02 0l-4.98.2c-.54.02-.95.47-.93 1 .02.52.45.93.97.93h.04l2.5-.09-10.87 10.87h-10.87c-.26 0-.5.1-.69.28l-11.27 11.27c-.38.38-.38.99 0 1.37.19.19.44.29.68.29z"/></g></svg>