<svg id="Layer_1" enable-background="new 0 0 512 512" height="512" viewBox="0 0 512 512" width="512" xmlns="http://www.w3.org/2000/svg"><path d="m97.378 344.789h-80.548c-6.627 0-12 5.373-12 12v138.005c0 6.627 5.373 12 12 12h80.549c6.627 0 12-5.373 12-12v-138.005c-.001-6.628-5.373-12-12.001-12zm-12 138.005h-56.548v-114.005h56.549v114.005zm144.874-267.122h-80.549c-6.627 0-12 5.373-12 12v263.987c0 6.627 5.373 12 12 12h80.549c6.627 0 12-5.373 12-12v-263.987c0-6.628-5.372-12-12-12zm-12 263.987h-56.549v-239.987h56.549zm144.874-220.07h-80.548c-6.627 0-12 5.373-12 12v216.934c0 6.627 5.373 12 12 12h80.548c6.627 0 12-5.373 12-12v-216.934c0-6.628-5.373-12-12-12zm-12 216.934h-56.548v-192.934h56.548zm144.874-339.264h-80.549c-6.627 0-12 5.373-12 12v336.128c0 6.627 5.373 12 12 12h80.549c6.627 0 12-5.373 12-12v-336.128c0-6.628-5.373-12-12-12zm-12 336.128h-56.549v-312.128h56.549zm-434.779-187.537c24.936 0 45.223-20.286 45.223-45.222 0-7.05-1.624-13.728-4.514-19.682l75.158-65.78c7.145 4.729 15.699 7.492 24.89 7.492 15.384 0 28.99-7.727 37.163-19.498l50.606 17.717c-.069 1.018-.116 2.043-.116 3.078 0 24.935 20.286 45.221 45.221 45.221 24.936 0 45.223-20.286 45.223-45.221 0-6.859-1.542-13.362-4.287-19.193l66.597-56.9c7.233 4.912 15.957 7.787 25.341 7.787 24.936 0 45.223-20.287 45.223-45.223 0-24.935-20.287-45.221-45.223-45.221s-45.222 20.286-45.222 45.221c0 6.859 1.542 13.362 4.287 19.192l-66.597 56.901c-7.234-4.912-15.958-7.787-25.342-7.787-15.383 0-28.989 7.727-37.162 19.498l-50.606-17.717c.069-1.018.116-2.043.116-3.078 0-24.936-20.287-45.222-45.223-45.222s-45.222 20.286-45.222 45.222c0 7.051 1.624 13.728 4.514 19.682l-75.159 65.78c-7.145-4.729-15.699-7.491-24.889-7.491-24.935.001-45.221 20.287-45.221 45.222s20.286 45.222 45.221 45.222zm406.504-256.644c11.702 0 21.223 9.52 21.223 21.221 0 11.702-9.521 21.223-21.223 21.223s-21.222-9.521-21.222-21.223c0-11.701 9.52-21.221 21.222-21.221zm-132.874 113.527c11.703 0 21.223 9.521 21.223 21.223 0 11.701-9.521 21.221-21.223 21.221-11.701 0-21.221-9.52-21.221-21.221 0-11.702 9.52-21.223 21.221-21.223zm-132.873-46.519c11.702 0 21.223 9.52 21.223 21.222 0 11.703-9.521 21.223-21.223 21.223s-21.222-9.521-21.222-21.223 9.52-21.222 21.222-21.222zm-140.757 123.193c11.703 0 21.223 9.52 21.223 21.221 0 11.702-9.521 21.222-21.223 21.222-11.701 0-21.221-9.52-21.221-21.222 0-11.701 9.52-21.221 21.221-21.221z"/></svg>