<svg clip-rule="evenodd" fill-rule="evenodd" height="512" image-rendering="optimizeQuality" shape-rendering="geometricPrecision" text-rendering="geometricPrecision" viewBox="0 0 2333 2333" width="512" xmlns="http://www.w3.org/2000/svg"><g id="Layer_x0020_1"><g id="_595863432"><g><g><path d="m1562 2020h-1081c-67 0-121-55-121-121v-1465c0-66 54-120 121-120h1370c66 0 121 54 121 120v1175c0 14-12 25-25 25h-290c-39 0-72 32-72 71l1 290c0 7-3 12-7 16-4 6-11 9-17 9zm-1081-1658c-39 0-72 32-72 72v1465c0 39 31 72 72 72h1056l-1-266c0-65 54-120 121-120h266v-1151c0-38-33-72-72-72z"/></g><g><path d="m1562 2020c-5 0-12-3-16-7-10-10-10-25 0-35l385-386c10-9 25-9 35 0 10 10 10 25 0 35l-386 386c-5 4-12 7-18 7z"/></g><g><g><path d="m707 760h-185c-14 0-25-11-25-25v-183c0-14 11-25 25-25h183c14 0 25 11 25 25v183c0 14-9 25-23 25zm-160-48h135v-135h-135z"/></g><g><path d="m1736 619h-878c-14 0-25-11-25-25s11-25 25-25h878c14 0 25 11 25 25s-11 25-25 25z"/></g><g><path d="m1250 719h-392c-14 0-25-11-25-25s11-25 25-25h392c14 0 25 11 25 25s-11 25-25 25z"/></g><g><path d="m1641 719h-233c-13 0-24-11-24-25s11-25 24-25h233c14 0 25 11 25 25s-11 25-25 25z"/></g><g><path d="m707 1110h-185c-14 0-25-11-25-25v-183c0-14 11-25 25-25h183c14 0 25 11 25 25v183c0 14-9 25-23 25zm-160-49h135v-136h-135z"/></g><g><path d="m1736 967h-878c-14 0-25-11-25-25s11-25 25-25h878c14 0 25 11 25 25s-11 25-25 25z"/></g><g><path d="m1250 1067h-392c-14 0-25-11-25-25s11-25 25-25h392c14 0 25 11 25 25s-11 25-25 25z"/></g><g><path d="m1641 1067h-233c-13 0-24-11-24-25s11-25 24-25h233c14 0 25 11 25 25s-11 25-25 25z"/></g><g><path d="m707 1458h-185c-14 0-25-11-25-25v-183c0-14 11-25 25-25h183c14 0 25 11 25 25v183c0 14-9 25-23 25zm-160-49h135v-134h-135z"/></g><g><path d="m1736 1316h-878c-14 0-25-11-25-25 0-13 11-24 25-24h878c14 0 25 11 25 24 0 14-11 25-25 25z"/></g><g><path d="m1250 1416h-392c-14 0-25-11-25-25s11-25 25-25h392c14 0 25 11 25 25s-11 25-25 25z"/></g><g><path d="m1641 1416h-233c-13 0-24-11-24-25s11-25 24-25h233c14 0 25 11 25 25s-11 25-25 25z"/></g><g><path d="m707 1806h-185c-14 0-25-11-25-25v-183c0-14 11-25 25-25h183c14 0 25 11 25 25v183c0 14-9 25-23 25zm-160-49h135v-134h-135z"/></g><g><path d="m1440 1665h-582c-14 0-25-12-25-25 0-14 11-25 25-25h582c14 0 25 11 25 25 0 13-11 25-25 25z"/></g><g><path d="m1250 1764h-392c-14 0-25-11-25-25 0-13 11-25 25-25h392c14 0 25 12 25 25 0 14-11 25-25 25z"/></g><g><path d="m1457 1764h-96c-14 0-25-11-25-25 0-13 11-25 25-25h96c14 0 25 12 25 25 0 14-12 25-25 25z"/></g></g></g></g></g></svg>