<svg id="Layer_1" enable-background="new 0 0 64 64" height="512" viewBox="0 0 64 64" width="512" xmlns="http://www.w3.org/2000/svg"><g><circle cx="32" cy="32" fill="#239956" r="32"/><g><g fill="#fff"><path d="m52.6 36.8c-.1 0-.2 0-.3 0-.5 0-.9.3-1 .7-2.4 8.6-10.3 14.6-19.3 14.6-7.5 0-14.4-4.2-17.9-10.9l2 1c.1.1.3.1.4.1.4 0 .7-.2.9-.6.2-.5 0-1.1-.5-1.4l-4.4-2.2c-.1-.1-.3-.1-.4-.1s-.2 0-.4.1c-.3.1-.5.3-.6.6l-1.8 4.6c-.2.5 0 1.1.6 1.3.1 0 .2.1.4.1.4 0 .8-.2.9-.6l.9-2.2c3.7 7.5 11.4 12.3 19.8 12.3 9.9 0 18.6-6.6 21.3-16.1.1-.3 0-.5-.1-.8 0-.2-.2-.4-.5-.5z"/><path d="m19.8 29.4c0 .2-.2.3-.3.3h-1.8c-.2 0-.3.2-.3.3v4c0 .2.2.3.3.3h1.8c.2 0 .3.1.3.3.3 1.5.9 2.9 1.7 4.2.1.1.1.3 0 .4l-1.3 1.3c-.1.1-.1.1-.1.2s0 .2.1.2l2.8 2.8c.1.1.1.1.2.1s.2 0 .2-.1l1.3-1.3c.1-.1.2-.1.2-.1.1 0 .1 0 .2.1 1.3.8 2.7 1.4 4.2 1.8.2 0 .3.2.3.3v1.8c0 .2.1.3.3.3h4c.2 0 .3-.1.3-.3v-1.8c0-.2.1-.3.3-.3 1.5-.3 2.9-.9 4.2-1.8.1 0 .1-.1.2-.1s.2 0 .2.1l1.3 1.3c.1.1.1.1.2.1s.2 0 .2-.1l2.8-2.8c.1-.1.1-.3 0-.5l-1.3-1.3c-.1-.1-.1-.3 0-.4.8-1.3 1.4-2.7 1.8-4.2 0-.2.2-.3.3-.3h1.8c.2 0 .3-.1.3-.3v-4c0-.2-.1-.3-.3-.3h-1.8c-.2 0-.3-.1-.3-.3-.3-1.5-.9-2.9-1.8-4.2-.1-.1-.1-.3 0-.4l1.3-1.3c.1-.1.1-.3 0-.5l-2.6-2.7c-.1-.1-.1-.1-.2-.1s-.2 0-.2.1l-1.3 1.3c-.1.1-.2.1-.2.1-.1 0-.1 0-.2-.1-1.3-.8-2.7-1.4-4.2-1.7-.2 0-.3-.2-.3-.3v-1.8c0-.2-.1-.3-.3-.3h-4c-.2 0-.3.2-.3.3v1.8c0 .2-.1.3-.3.3-1.5.3-2.9.9-4.2 1.8-.1 0-.1.1-.2.1s-.2 0-.2-.1l-1.3-1.3s-.1-.1-.2-.1-.2 0-.2.1l-3 2.7c-.1.1-.1.1-.1.2s0 .2.1.2l1.3 1.3c.1.1.1.3 0 .4-.8 1.4-1.4 2.8-1.7 4.3zm12.2-5.5c4.5 0 8.1 3.6 8.1 8.1s-3.6 8.1-8.1 8.1-8.1-3.6-8.1-8.1 3.6-8.1 8.1-8.1z"/><path d="m54.6 19.9c-.1-.2-.3-.4-.6-.5-.1 0-.2-.1-.4-.1-.4 0-.8.2-.9.6l-.9 2.2c-3.7-7.5-11.4-12.3-19.8-12.3-9.9 0-18.6 6.6-21.3 16.1-.2.5.2 1.1.7 1.3h.3c.5 0 .9-.3 1-.7 2.4-8.6 10.3-14.6 19.3-14.6 7.5 0 14.4 4.2 17.9 10.9l-2-1c-.1-.1-.3-.1-.4-.1-.4 0-.7.2-.9.6-.2.5 0 1.1.5 1.4l4.4 2.2c.1.1.3.1.4.1s.2 0 .4-.1c.3-.1.5-.3.6-.6l1.8-4.6c0-.3 0-.6-.1-.8z"/></g></g></g></svg>