<?xml version="1.0" encoding="UTF-8"?>
<svg xmlns="http://www.w3.org/2000/svg" xmlns:xlink="http://www.w3.org/1999/xlink" version="1.1" id="Capa_1" x="0px" y="0px" viewBox="0 0 512 512" style="enable-background:new 0 0 512 512;" xml:space="preserve" width="512" height="512">
<g id="Outline_00000088821320546574498340000007211615736599542405_">
	<g>
		<line style="fill:none;stroke:#000000;stroke-width:15;stroke-miterlimit:10;" x1="186" y1="444" x2="326" y2="444"/>
		<line style="fill:none;stroke:#000000;stroke-width:15;stroke-miterlimit:10;" x1="184" y1="414" x2="328" y2="414"/>
		<line style="fill:none;stroke:#000000;stroke-width:15;stroke-miterlimit:10;" x1="176" y1="384" x2="336" y2="384"/>
		<path style="fill:none;stroke:#000000;stroke-width:15;stroke-miterlimit:10;" d="M301,474v10c0,11.046-8.954,20-20,20h-50&#10;&#9;&#9;&#9;c-11.046,0-20-8.954-20-20v-10"/>
		<path style="fill:none;stroke:#000000;stroke-width:15;stroke-miterlimit:10;stroke-dasharray:316,15;" d="M66,198&#10;&#9;&#9;&#9;C66,93.066,151.066,8,256,8s190,85.066,190,190c0,65.928-33.58,124.011-84.569,158.084C339.262,370.898,326,395.845,326,422.51&#10;&#9;&#9;&#9;V454c0,11.046-8.954,20-20,20H206c-11.046,0-20-8.954-20-20v-31.49c0-26.664-13.262-51.611-35.431-66.426&#10;&#9;&#9;&#9;C99.58,322.011,66,263.928,66,198z"/>
		<line style="fill:none;stroke:#000000;stroke-width:15;stroke-miterlimit:10;" x1="0" y1="201" x2="38" y2="201"/>
		<line style="fill:none;stroke:#000000;stroke-width:15;stroke-miterlimit:10;" x1="474" y1="201" x2="512" y2="201"/>
		
			<line style="fill:none;stroke:#000000;stroke-width:15;stroke-miterlimit:10;" x1="15.439" y1="288.557" x2="51.147" y2="275.56"/>
		
			<line style="fill:none;stroke:#000000;stroke-width:15;stroke-miterlimit:10;" x1="460.853" y1="126.44" x2="496.561" y2="113.443"/>
		
			<line style="fill:none;stroke:#000000;stroke-width:15;stroke-miterlimit:10;" x1="59.893" y1="365.554" x2="89.002" y2="341.128"/>
		
			<line style="fill:none;stroke:#000000;stroke-width:15;stroke-miterlimit:10;" x1="422.998" y1="60.872" x2="452.107" y2="36.446"/>
		
			<line style="fill:none;stroke:#000000;stroke-width:15;stroke-miterlimit:10;" x1="496.561" y1="288.557" x2="460.853" y2="275.56"/>
		
			<line style="fill:none;stroke:#000000;stroke-width:15;stroke-miterlimit:10;" x1="51.147" y1="126.44" x2="15.439" y2="113.443"/>
		
			<line style="fill:none;stroke:#000000;stroke-width:15;stroke-miterlimit:10;" x1="452.107" y1="365.554" x2="422.998" y2="341.128"/>
		<line style="fill:none;stroke:#000000;stroke-width:15;stroke-miterlimit:10;" x1="89.002" y1="60.872" x2="59.893" y2="36.446"/>
		<path style="fill:none;stroke:#000000;stroke-width:15;stroke-miterlimit:10;" d="M357.794,201.753&#10;&#9;&#9;&#9;C368.697,195.115,376,183.174,376,169.5c0-19.079-14.185-34.813-32.6-37.389c0.598-2.15,1.021-4.371,1.021-6.711&#10;&#9;&#9;&#9;c0-13.918-11.311-25.2-25.263-25.2c-0.728,0-1.412,0.153-2.124,0.213C311.888,85.63,297.836,75,281.263,75&#10;&#9;&#9;&#9;c-9.719,0-18.555,3.681-25.263,9.682c-6.708-6-15.544-9.682-25.263-9.682c-16.573,0-30.624,10.63-35.771,25.413&#10;&#9;&#9;&#9;c-0.712-0.06-1.396-0.213-2.124-0.213c-13.953,0-25.263,11.282-25.263,25.2c0,2.34,0.423,4.561,1.021,6.711&#10;&#9;&#9;&#9;c-18.415,2.575-32.6,18.309-32.6,37.389c0,13.674,7.303,25.615,18.206,32.253c-7.194,5.774-11.89,14.52-11.89,24.447&#10;&#9;&#9;&#9;c0,12.22,7.05,22.696,17.246,27.919c-2.867,4.743-4.615,10.239-4.615,16.181c0,16.677,13.034,30.188,29.473,31.288&#10;&#9;&#9;&#9;c7.057,15,22.291,25.412,40.001,25.412c12.378,0,23.554-5.088,31.579-13.265c8.025,8.177,19.201,13.265,31.579,13.265&#10;&#9;&#9;&#9;c17.71,0,32.944-10.412,40.001-25.412c16.439-1.1,29.473-14.611,29.473-31.288c0-5.942-1.747-11.438-4.615-16.181&#10;&#9;&#9;&#9;c10.196-5.223,17.246-15.699,17.246-27.919C369.684,216.273,364.988,207.526,357.794,201.753z"/>
		<line style="fill:none;stroke:#000000;stroke-width:15;stroke-miterlimit:10;" x1="256" y1="84.682" x2="256" y2="313.735"/>
		<path style="fill:none;stroke:#000000;stroke-width:15;stroke-miterlimit:10;" d="M168.6,132.111c0,0,19.9-3.111,31.9,17.889"/>
		<path style="fill:none;stroke:#000000;stroke-width:15;stroke-miterlimit:10;" d="M343.4,132.111c0,0-19.9-3.111-31.9,17.889"/>
		<path style="fill:none;stroke:#000000;stroke-width:15;stroke-miterlimit:10;" d="M184.42,301.588c0,0,28.08,1.412,25.08-30.088"/>
		<path style="fill:none;stroke:#000000;stroke-width:15;stroke-miterlimit:10;" d="M154.206,201.753&#10;&#9;&#9;&#9;c0,0,25.294-17.253,43.294,17.247"/>
		<path style="fill:none;stroke:#000000;stroke-width:15;stroke-miterlimit:10;" d="M327.58,301.588c0,0-28.08,1.412-25.08-30.088"/>
		<path style="fill:none;stroke:#000000;stroke-width:15;stroke-miterlimit:10;" d="M357.794,201.753&#10;&#9;&#9;&#9;c0,0-25.294-17.253-43.294,17.247"/>
	</g>
	<g>
		<line style="fill:none;stroke:#000000;stroke-width:15;stroke-miterlimit:10;" x1="416" y1="224" x2="416" y2="209"/>
		<line style="fill:none;stroke:#000000;stroke-width:15;stroke-miterlimit:10;" x1="416" y1="193" x2="416" y2="178"/>
	</g>
</g>















</svg>
