<svg id="Layer_1" enable-background="new 0 0 1580 1580" height="512" viewBox="0 0 1580 1580" width="512" xmlns="http://www.w3.org/2000/svg"><g><g><path d="m645.9 876.5c-.4 0-.7 0-1.1 0l-173.6-7.8c-13.2-.6-23.5-11.8-22.9-25.1.6-13.2 11.8-23.5 25.1-22.9l173.6 7.8c13.2.6 23.5 11.8 22.9 25.1-.7 12.9-11.3 22.9-24 22.9z"/><path d="m254.5 1234.5c-4.3 0-8.6-1.1-12.5-3.5l-169.1-103.1c-11.2-6.8-14.9-21.5-8.1-32.8l244.9-411.6c3.3-5.5 8.6-9.5 14.8-11s12.8-.5 18.3 2.8l169.2 103.1c11.3 6.9 14.9 21.7 8 33s-21.7 14.9-33 8l-148.4-90.5-220.4 370.3 148.8 90.8c11.3 6.9 14.9 21.7 8 33-4.5 7.4-12.4 11.5-20.5 11.5z"/><path d="m254.5 1234.5c-4.2 0-8.4-1.1-12.3-3.4-11.4-6.8-15.1-21.5-8.4-32.9l244.9-411.6c6.8-11.4 21.5-15.1 32.9-8.3s15.1 21.5 8.3 32.9l-244.9 411.6c-4.3 7.5-12.3 11.7-20.5 11.7z"/><path d="m366.7 1268.1c-6.3 0-12.6-2.5-17.3-7.4l-81.4-85.2c-9.2-9.6-8.8-24.8.8-33.9 9.6-9.2 24.8-8.8 33.9.8l81.4 85.2c9.2 9.6 8.8 24.8-.8 33.9-4.7 4.4-10.7 6.6-16.6 6.6z"/><path d="m1054.9 1426.5c-13.6 0-27.1-3.2-39.2-9.4-4.3-2.2-8.5-4.8-12.4-7.8l-137.7-103.5c-10.6-8-12.7-23-4.8-33.6 8-10.6 23-12.7 33.6-4.8l137.7 103.5c1.7 1.3 3.5 2.4 5.5 3.4 15.7 8.1 35.1 4 46.3-9.7 5.6-6.8 8.5-15.1 8.5-23.8 0-2.6-.3-5.1-.8-7.6-2.7-13 5.6-25.7 18.6-28.4s25.7 5.6 28.4 18.6c1.2 5.7 1.8 11.5 1.8 17.4 0 19.7-6.9 39-19.4 54.3-12.5 15.2-29.9 25.8-49.2 29.7-5.5 1.2-11.2 1.7-16.9 1.7z"/><path d="m968.5 1504.5c-15.6 0-31.4-4.2-45.5-13.1-2.6-1.6-5.1-3.4-7.5-5.2l-103.2-80.4c-10.5-8.1-12.3-23.2-4.2-33.7s23.2-12.3 33.7-4.2l103.3 80.4c1.1.8 2.2 1.6 3.3 2.3 16.6 10.4 38.3 6.5 50.4-8.9 5.3-6.8 8.2-15 8.2-23.6 0-4.7-.9-9.4-2.5-13.8-4.7-12.4 1.5-26.3 13.8-31 12.4-4.7 26.3 1.5 31 13.8 3.8 9.9 5.7 20.3 5.7 30.9 0 19.4-6.4 37.8-18.4 53.2-17.1 21.8-42.4 33.3-68.1 33.3z"/><path d="m878.1 1558c-15.9 0-31.5-4.6-45-13.5l-102.7-67.8c-11.1-7.3-14.1-22.2-6.8-33.3s22.2-14.1 33.3-6.8l102.7 67.8c14.6 9.7 34 6.6 44.9-7.1 4.8-6 7.4-13.3 7.4-21 0-1 0-2-.1-3-1.3-13.2 8.4-24.9 21.6-26.2 13.2-1.2 24.9 8.4 26.2 21.6.2 2.5.4 5 .4 7.5 0 18.5-6.4 36.6-17.9 51-12.8 16-30.9 26.5-51.1 29.7-4.4.8-8.7 1.1-12.9 1.1z"/><path d="m662.5 1541.9c-18.4 0-36.8-7-50.8-21-28-28-28-73.6 0-101.6l48.4-48.4c28-28 73.6-28 101.6 0s28 73.6 0 101.6l-48.4 48.4c-14 14-32.4 21-50.8 21zm48.4-144c-6.1 0-12.2 2.3-16.8 7l-48.4 48.4c-9.3 9.3-9.3 24.4 0 33.7s24.4 9.3 33.7 0l48.4-48.4c9.3-9.3 9.3-24.4 0-33.7-4.7-4.7-10.8-7-16.9-7z"/><path d="m573.8 1492.6c-21 0-40.7-8.2-55.6-23-14.8-14.8-23-34.6-23-55.6s8.2-40.7 23-55.6l64.2-64.2c14.8-14.8 34.6-23 55.6-23s40.7 8.2 55.6 23c14.8 14.8 23 34.6 23 55.6s-8.2 40.7-23 55.6l-64.2 64.2c-14.9 14.8-34.6 23-55.6 23zm64.2-173.4c-8.2 0-15.9 3.2-21.6 9l-64.2 64.2c-5.8 5.8-9 13.5-9 21.6s3.2 15.9 9 21.6c5.8 5.8 13.5 9 21.6 9s15.9-3.2 21.6-9l64.2-64.2c5.8-5.8 9-13.5 9-21.6s-3.2-15.9-9-21.6c-5.7-5.8-13.4-9-21.6-9z"/><path d="m485.9 1426.2c-20.9 0-40.6-8.1-55.4-22.9-30.5-30.5-30.5-80.2 0-110.8l84.5-84.5c14.8-14.8 34.5-22.9 55.4-22.9s40.6 8.1 55.4 22.9 22.9 34.5 22.9 55.4-8.1 40.6-22.9 55.4l-84.5 84.5c-14.9 14.8-34.5 22.9-55.4 22.9zm-21.5-56.8c5.7 5.7 13.3 8.9 21.4 8.9s15.7-3.2 21.4-8.9l84.5-84.5c5.7-5.7 8.9-13.3 8.9-21.4s-3.2-15.7-8.9-21.4c-11.8-11.8-31.1-11.8-42.9 0l-84.5 84.5c-11.7 11.7-11.7 30.9.1 42.8z"/><path d="m412.3 1347.2c-19.4 0-38.8-7.4-53.5-22.1-29.5-29.5-29.5-77.5 0-107l47.4-47.4c29.5-29.5 77.5-29.5 107 0s29.5 77.5 0 107l-47.4 47.4c-14.7 14.7-34.1 22.1-53.5 22.1zm47.4-150.8c-7.4 0-14.3 2.9-19.6 8.1l-47.4 47.4c-10.8 10.8-10.8 28.3 0 39.1s28.3 10.8 39.1 0l47.4-47.4c10.8-10.8 10.8-28.3 0-39.1-5.1-5.2-12.1-8.1-19.5-8.1z"/><path d="m1135.1 1208.2c-8.7 0-17.1-4.7-21.3-12.9-6.1-11.8-1.5-26.3 10.2-32.4l172.7-89.6c11.8-6.1 26.3-1.5 32.4 10.2 6.1 11.8 1.5 26.3-10.2 32.4l-172.7 89.6c-3.6 1.8-7.3 2.7-11.1 2.7z"/><path d="m1330.8 1152.8c-7.7 0-15.3-3.7-19.9-10.6l-237.9-351.9c-3.7-5.5-5-12.2-3.6-18.6s5.4-12 11.1-15.4l163.8-98.4c10.9-6.6 25.1-3.4 32.2 7.1l237.9 351.9c3.7 5.5 5 12.2 3.6 18.6s-5.4 12-11.1 15.4l-163.8 98.4c-3.8 2.4-8.1 3.5-12.3 3.5zm-203.9-368.4 211 312.1 122.6-73.7-211-312.1z"/><path d="m1147.9 1361.2c-15.7 0-31.1-4.1-44.6-12-2.6-1.5-5.1-3.1-7.5-4.9l-203.6-146.7c-10.8-7.8-13.2-22.7-5.4-33.5 7.7-10.8 22.7-13.2 33.5-5.4l203.6 146.7c1.2.8 2.4 1.6 3.6 2.3 6.2 3.6 13.3 5.5 20.6 5.5 13.1 0 25.1-6 33-16.3 7-9.2 9.8-20.4 7.9-31.8-1.9-11.3-8.1-21.1-17.7-27.6l-430.1-290.5-79.8 84.4c-.5.5-.9 1-1.4 1.4-52.5 47-98.6 50-128.1 44.2-32.5-6.3-51.9-24.4-54-26.4-9.1-8.7-9.8-23-1.8-32.7l178.3-213c16.6-19.8 40.9-32.1 66.6-33.6 46.1-2.7 105.5 1.8 147.3 6 23.9 2.4 48.3 5.9 74.4 10.6 96.4 17.2 179.5 13.3 180.4 13.2 13.3-.6 24.5 9.5 25.2 22.7s-9.5 24.5-22.7 25.2c-3.6.2-89.2 4.3-191.3-13.9-25-4.5-48.2-7.8-70.8-10.1-40-4.1-96.7-8.4-139.6-5.8-12.6.7-24.5 6.8-32.7 16.5l-160.2 191.3c3.6 1.3 7.7 2.4 12.1 3.2 26.5 4.4 54.8-6.6 84.1-32.6l93-98.4c8.1-8.5 21.1-10 30.9-3.4l446.8 301.9c20.3 13.7 34.2 35.4 38.2 59.6s-2.2 49.2-17.1 68.7c-17 22.3-42.9 35.2-71.1 35.2z"/></g><g><path d="m1108.6 335.8c-5.4 0-10.9-1.8-15.4-5.6l-76.6-63.9-226.6-189-242 201.9-61.2 51c-10.2 8.5-25.3 7.1-33.8-3.1s-7.1-25.3 3.1-33.8l76.6-63.9 242-201.9c8.9-7.4 21.8-7.4 30.8 0l257.4 214.8 61.2 51c10.2 8.5 11.5 23.6 3.1 33.8-4.9 5.8-11.8 8.7-18.6 8.7z"/><path d="m1032 635.8h-164.3c-13.3 0-24-10.7-24-24v-203.4h-107.4v203.4c0 13.3-10.7 24-24 24h-164.3c-13.3 0-24-10.7-24-24v-363.9c0-13.3 10.7-24 24-24s24 10.7 24 24v339.9h116.2v-203.4c0-13.3 10.7-24 24-24h155.4c13.3 0 24 10.7 24 24v203.4h116.4v-339.9c0-13.3 10.7-24 24-24s24 10.7 24 24v363.9c0 13.2-10.8 24-24 24z"/></g></g></svg>