<svg id="Layer_1" enable-background="new 0 0 32 32" height="512" viewBox="0 0 32 32" width="512" xmlns="http://www.w3.org/2000/svg"><g><path d="m28.9 13.1c-1.5-1.5-3.9-1.5-5.4 0l-10.2 10.2c-.1.1-.2.3-.3.5l-1 5c-.1.3 0 .7.3.9.2.2.6.3.9.3l5-1c.2 0 .4-.1.5-.3l10.2-10.2c1.5-1.5 1.5-3.9 0-5.4zm-11.4 14-3.2.6.6-3.2 8.1-8.1 2.6 2.6zm10-10-.5.5-2.6-2.6.5-.5c.7-.7 1.9-.7 2.6 0s.7 1.9 0 2.6z"/><path d="m18.3 14.7c.4.4 1 .4 1.4 0s.4-1 0-1.4l-2-2c-.4-.4-1-.4-1.4 0l-5.3 5.3-2.3-2.3c-.4-.4-1-.4-1.4 0l-3.3 3.3v-12.6c0-.6.4-1 1-1h18c.6 0 1 .4 1 1v4c0 .6.4 1 1 1s1-.4 1-1v-4c0-1.7-1.3-3-3-3h-18c-1.7 0-3 1.3-3 3v18c0 1.7 1.3 3 3 3h5c.6 0 1-.4 1-1s-.4-1-1-1h-5c-.6 0-1-.4-1-1v-2.6l4-4 2.3 2.3c.4.4 1 .4 1.4 0l5.3-5.3z"/><path d="m8 9c0 1.7 1.3 3 3 3s3-1.3 3-3-1.3-3-3-3-3 1.3-3 3zm4 0c0 .6-.4 1-1 1s-1-.4-1-1 .4-1 1-1 1 .4 1 1z"/></g></svg>