<svg id="Layer_1" height="512" viewBox="0 0 64 64" width="512" xmlns="http://www.w3.org/2000/svg" data-name="Layer 1"><g fill="rgb(0,0,0)"><path d="m54 64h-44a1 1 0 0 1 -1-1v-22a1 1 0 0 1 2 0v21h42v-21a1 1 0 0 1 2 0v22a1 1 0 0 1 -1 1z"/><path d="m54 34h-44a1 1 0 0 1 0-2h44a1 1 0 0 1 0 2z"/><path d="m32 64a1 1 0 0 1 -1-1v-30a1 1 0 0 1 2 0v30a1 1 0 0 1 -1 1z"/><path d="m23 42h-20a1 1 0 0 1 -.752-1.658l7-8a1 1 0 0 1 .752-.342h22a1 1 0 0 1 .665 1.747l-9 8a1 1 0 0 1 -.665.253zm-17.8-2h17.42l6.75-6h-18.916z"/><path d="m61 42h-20a1 1 0 0 1 -.665-.253l-9-8a1 1 0 0 1 .665-1.747h22a.993.993 0 0 1 .752.342l7 8a1 1 0 0 1 -.752 1.658zm-19.62-2h17.42l-5.25-6h-18.92z"/><path d="m19 31a1 1 0 0 1 -.9-.553c-5.653-11.316-16-11.447-16.1-11.447a1 1 0 0 1 0-2c.475 0 11.689.143 17.9 12.553a1 1 0 0 1 -.9 1.447z"/><path d="m45 31a1 1 0 0 1 -.894-1.447c6.205-12.41 17.419-12.553 17.894-12.553a1 1 0 0 1 0 2c-.425 0-10.473.178-16.107 11.447a1 1 0 0 1 -.893.553z"/><path d="m23 25a1 1 0 0 1 -.979-.8c-1.864-9.319-8.15-12.162-8.417-12.278a1 1 0 0 1 .791-1.837c.306.131 7.507 3.326 9.586 13.723a1 1 0 0 1 -.781 1.172.948.948 0 0 1 -.2.02z"/><path d="m40 25a.948.948 0 0 1 -.2-.02 1 1 0 0 1 -.78-1.18c2.079-10.4 9.28-13.592 9.586-13.723a1 1 0 0 1 .79 1.837c-.283.124-6.554 2.973-8.416 12.278a1 1 0 0 1 -.98.808z"/><path d="m26.971 18a1.893 1.893 0 0 1 -1.15-.389 1.77 1.77 0 0 1 -.685-1.738l.782-4.238-3.327-3.015a1.758 1.758 0 0 1 -.511-1.838 1.831 1.831 0 0 1 1.528-1.27l4.661-.63 2.07-3.9a1.9 1.9 0 0 1 3.322 0l2.07 3.9 4.66.63a1.832 1.832 0 0 1 1.529 1.27 1.756 1.756 0 0 1 -.511 1.837l-3.327 3.017.782 4.238a1.77 1.77 0 0 1 -.685 1.738 1.9 1.9 0 0 1 -2 .192l-4.219-2.063-4.144 2.059a1.917 1.917 0 0 1 -.845.2zm-2.7-10.56 3.078 2.79a1.765 1.765 0 0 1 .562 1.637l-.754 4.088 4-2.012a1.933 1.933 0 0 1 1.683 0l3.994 1.957-.743-4.028a1.767 1.767 0 0 1 .561-1.637l3.079-2.79-4.325-.585a1.867 1.867 0 0 1 -1.406-.966l-2-3.776-2 3.776a1.867 1.867 0 0 1 -1.4.962z"/><circle cx="12" cy="16" r="1"/><circle cx="57" cy="13" r="1"/><circle cx="35" cy="26" r="1"/><circle cx="51" cy="28" r="1"/><circle cx="28" cy="21" r="1"/><circle cx="14" cy="29" r="1"/><circle cx="18" cy="6" r="1"/><circle cx="45" cy="4" r="1"/></g></svg>