<svg fill="none" height="64" viewBox="0 0 64 64" width="64" xmlns="http://www.w3.org/2000/svg" xmlns:xlink="http://www.w3.org/1999/xlink"><linearGradient id="paint0_linear_2548_2541" gradientUnits="userSpaceOnUse" x1="9.5" x2="48" y1="2" y2="52"><stop offset="0" stop-color="#fa1228"/><stop offset=".901177" stop-color="#5a00d1"/></linearGradient><g clip-rule="evenodd" fill="url(#paint0_linear_2548_2541)" fill-rule="evenodd"><path d="m38 17c0-3.866 3.134-7 7-7s7 3.134 7 7-3.134 7-7 7-7-3.134-7-7zm7-3c-1.6569 0-3 1.3431-3 3s1.3431 3 3 3 3-1.3431 3-3-1.3431-3-3-3z"/><path d="m18.4448 2c-7.9805 0-14.88678 5.90602-15.64543 13.9639-1.06869 11.3509-1.06495 20.6627.00602 32.0583.75772 8.0625 7.66491 13.9778 15.65211 13.9778h27.054c7.9502 0 14.8419-5.8621 15.6343-13.8873 1.136-11.5056 1.1384-20.8596.0101-32.2471-.7944-8.01794-7.6851-13.8656-15.6247-13.8656zm-11.66305 14.3389c.55469-5.8915 5.63245-10.3389 11.66305-10.3389h27.0864c6.0019 0 11.064 4.4044 11.6442 10.26.7394 7.4625.9819 14.0099.7261 20.9073-6.6273-2.0604-13.9976-1.206-20.103 2.9532-8.4221-7.516-20.1161-10.9052-31.7985-8.1969.0006-5.029.26101-10.0537.78175-15.5847zm-.72485 19.6897c.10324 3.7282.34696 7.5336.73094 11.6193.5543 5.8981 5.63486 10.3521 11.66966 10.3521h26.1824c-5.1089-16.6336-22.0026-26.2865-38.583-21.9714zm42.629 21.5482c4.5339-1.2368 8.0058-5.0621 8.4793-9.8572.2178-2.2062.393-4.3294.5255-6.4013-5.5408-2.0409-11.7792-1.5753-17.0005 1.6904 3.6174 4.0431 6.4012 8.9703 7.9957 14.5681z"/></g></svg>