<svg clip-rule="evenodd" fill-rule="evenodd" height="512" image-rendering="optimizeQuality" shape-rendering="geometricPrecision" text-rendering="geometricPrecision" viewBox="0 0 512 512" width="512" xmlns="http://www.w3.org/2000/svg"><g id="Layer_x0020_1" fill-rule="nonzero"><g id="_290390416"><path d="m457 121-121-121h-250c-17 0-31 14-31 30v452c0 8 4 16 9 21 6 6 13 9 22 9h340c9 0 16-3 22-9l-5-4 5 4c5-5 9-13 9-21z" fill="#dfdfdf"/><path d="m340 2 115 115c4 3 1 10-4 10h-91c-17 0-30-14-30-30v-91c0-5 6-8 10-4z" fill="#b5b5b5"/></g><path d="m55 240v172h317c9 0 16-3 22-9l-5-4 5 4c5-5 8-13 8-21v-112c0-9-3-16-8-22l-5 5 5-5c-6-5-13-8-22-8z" fill="#3c5a82"/><g id="_290390128" fill="#b5b5b5"><path d="m100 201c-8 0-8 12 0 12h258c8 0 8-12 0-12z"/><path d="m100 155c-8 0-8 12 0 12h258c8 0 8-12 0-12z"/></g><path d="m122 372v-93h13v93zm34 0v-93h19c7 24 19 57 26 80 7-24 19-56 27-80h17v93h-12v-78l-27 78h-11l-27-79v79zm152-36v-11h39v34c-35 29-86 15-86-33 0-55 61-57 78-36 3 4 5 9 7 15l-11 3c-4-13-12-20-27-20-37 0-38 41-30 58 11 22 43 20 57 7v-17z" fill="#fff"/></g></svg>