<?xml version="1.0" encoding="UTF-8" standalone="no"?>
<!-- Created with Inkscape (http://www.inkscape.org/) -->

<svg
   version="1.1"
   id="svg321"
   xml:space="preserve"
   width="682.66669"
   height="682.66669"
   viewBox="0 0 682.66669 682.66669"
   xmlns="http://www.w3.org/2000/svg"
   xmlns:svg="http://www.w3.org/2000/svg"><defs
     id="defs325"><clipPath
       clipPathUnits="userSpaceOnUse"
       id="clipPath335"><path
         d="M 0,512 H 512 V 0 H 0 Z"
         id="path333" /></clipPath></defs><g
     id="g327"
     transform="matrix(1.3333333,0,0,-1.3333333,0,682.66667)"><g
       id="g329"><g
         id="g331"
         clip-path="url(#clipPath335)"><g
           id="g337"
           transform="translate(497,256.0161)"><path
             d="M 0,0 C 0,17.738 -14.38,32.117 -32.117,32.117 H -321.35 c -17.737,0 -32.117,-14.379 -32.117,-32.117 v -0.032 c 0,-17.738 14.38,-32.117 32.117,-32.117 H -32.117 C -14.38,-32.149 0,-17.77 0,-0.032 Z"
             style="fill:none;stroke:#000000;stroke-width:30;stroke-linecap:round;stroke-linejoin:round;stroke-miterlimit:10;stroke-dasharray:none;stroke-opacity:1"
             id="path339" /></g><g
           id="g341"
           transform="translate(497,400.6162)"><path
             d="M 0,0 C 0,17.737 -14.38,32.117 -32.117,32.117 H -321.35 c -17.737,0 -32.117,-14.38 -32.117,-32.117 v -0.032 c 0,-17.738 14.38,-32.117 32.117,-32.117 H -32.117 C -14.38,-32.149 0,-17.77 0,-0.032 Z"
             style="fill:none;stroke:#000000;stroke-width:30;stroke-linecap:round;stroke-linejoin:round;stroke-miterlimit:10;stroke-dasharray:none;stroke-opacity:1"
             id="path343" /></g><g
           id="g345"
           transform="translate(497,111.416)"><path
             d="M 0,0 C 0,17.738 -14.38,32.117 -32.117,32.117 H -321.35 c -17.737,0 -32.117,-14.379 -32.117,-32.117 v -0.032 c 0,-17.738 14.38,-32.117 32.117,-32.117 H -32.117 C -14.38,-32.149 0,-17.77 0,-0.032 Z"
             style="fill:none;stroke:#000000;stroke-width:30;stroke-linecap:round;stroke-linejoin:round;stroke-miterlimit:10;stroke-dasharray:none;stroke-opacity:1"
             id="path347" /></g><g
           id="g349"
           transform="translate(47.1338,432.7334)"><path
             d="m 0,0 c 17.737,0 32.133,-14.396 32.133,-32.133 0,-17.738 -14.396,-32.134 -32.133,-32.134 -17.738,0 -32.134,14.396 -32.134,32.134 C -32.134,-14.396 -17.738,0 0,0 Z"
             style="fill:none;stroke:#000000;stroke-width:30;stroke-linecap:round;stroke-linejoin:round;stroke-miterlimit:10;stroke-dasharray:none;stroke-opacity:1"
             id="path351" /></g><g
           id="g353"
           transform="translate(47.1338,288.1333)"><path
             d="m 0,0 c 17.737,0 32.133,-14.396 32.133,-32.133 0,-17.738 -14.396,-32.134 -32.133,-32.134 -17.738,0 -32.134,14.396 -32.134,32.134 C -32.134,-14.396 -17.738,0 0,0 Z"
             style="fill:none;stroke:#000000;stroke-width:30;stroke-linecap:round;stroke-linejoin:round;stroke-miterlimit:10;stroke-dasharray:none;stroke-opacity:1"
             id="path355" /></g><g
           id="g357"
           transform="translate(47.1338,143.5332)"><path
             d="m 0,0 c 17.737,0 32.133,-14.396 32.133,-32.133 0,-17.738 -14.396,-32.134 -32.133,-32.134 -17.738,0 -32.134,14.396 -32.134,32.134 C -32.134,-14.396 -17.738,0 0,0 Z"
             style="fill:none;stroke:#000000;stroke-width:30;stroke-linecap:round;stroke-linejoin:round;stroke-miterlimit:10;stroke-dasharray:none;stroke-opacity:1"
             id="path359" /></g></g></g></g></svg>
