<svg id="Layer_1" height="512" viewBox="0 0 32 32" width="512" xmlns="http://www.w3.org/2000/svg" data-name="Layer 1"><path d="m24.75 28.861-2.34-.6-1.04 2.17c-.37.76-1.45.76-1.81-.01l-2.1-4.5c2.43-.26 4.67-1.17 6.54-2.54l1.9 4.08c.36.77-.33 1.6-1.15 1.4z"/><path d="m14.54 25.921-2.1 4.5c-.36.77-1.44.77-1.81.01l-1.04-2.17-2.34.6c-.82.2-1.51-.63-1.15-1.4l1.9-4.08c1.87 1.37 4.11 2.28 6.54 2.54z"/><path d="m16 1c-6.351 0-11.5 5.149-11.5 11.5s5.149 11.5 11.5 11.5 11.5-5.149 11.5-11.5-5.149-11.5-11.5-11.5zm5.189 11.231-1.849 1.802.436 2.545c.144.839-.737 1.48-1.491 1.083l-2.285-1.201-2.285 1.201c-.754.396-1.635-.244-1.491-1.083l.436-2.545-1.849-1.802c-.61-.595-.273-1.63.57-1.753l2.555-.371 1.143-2.315c.377-.764 1.466-.764 1.843 0l1.143 2.315 2.555.371c.843.122 1.179 1.158.57 1.753z"/></svg>