<?xml version="1.0" encoding="UTF-8" standalone="no"?>
<!-- Created with Inkscape (http://www.inkscape.org/) -->

<svg
   version="1.1"
   id="svg843"
   xml:space="preserve"
   width="682.66669"
   height="682.66669"
   viewBox="0 0 682.66669 682.66669"
   xmlns="http://www.w3.org/2000/svg"
   xmlns:svg="http://www.w3.org/2000/svg"><defs
     id="defs847"><clipPath
       clipPathUnits="userSpaceOnUse"
       id="clipPath857"><path
         d="M 0,512 H 512 V 0 H 0 Z"
         id="path855" /></clipPath></defs><g
     id="g849"
     transform="matrix(1.3333333,0,0,-1.3333333,0,682.66667)"><g
       id="g851"><g
         id="g853"
         clip-path="url(#clipPath857)"><g
           id="g859"
           transform="translate(286,467)"><path
             d="m 0,0 c 0,-16.569 -13.432,-30 -30,-30 -16.568,0 -30,13.431 -30,30 0,16.569 13.432,30 30,30 C -13.432,30 0,16.569 0,0 Z"
             style="fill:none;stroke:#000000;stroke-width:30;stroke-linecap:round;stroke-linejoin:round;stroke-miterlimit:10;stroke-dasharray:none;stroke-opacity:1"
             id="path861" /></g><g
           id="g863"
           transform="translate(298.4395,75)"><path
             d="m 0,0 c 1.658,-4.692 2.561,-9.74 2.561,-15 0,-24.853 -20.148,-45 -45,-45 -24.853,0 -45,20.147 -45,45 0,5.26 0.902,10.308 2.56,15"
             style="fill:none;stroke:#000000;stroke-width:30;stroke-linecap:round;stroke-linejoin:round;stroke-miterlimit:10;stroke-dasharray:none;stroke-opacity:1"
             id="path865" /></g><g
           id="g867"
           transform="translate(376,256)"><path
             d="m 0,0 v 61 c 0,66.275 -53.727,120 -120,120 -66.275,0 -120,-53.725 -120,-120 V 0 c 0,-105 -60,-76 -60,-181 H 60 C 60,-76 0,-105 0,0 Z"
             style="fill:none;stroke:#000000;stroke-width:30;stroke-linecap:round;stroke-linejoin:round;stroke-miterlimit:10;stroke-dasharray:none;stroke-opacity:1"
             id="path869" /></g><g
           id="g871"
           transform="translate(76,317)"><path
             d="M 0,0 C 0,66.494 36.236,124.679 90,155.846"
             style="fill:none;stroke:#000000;stroke-width:30;stroke-linecap:round;stroke-linejoin:round;stroke-miterlimit:10;stroke-dasharray:none;stroke-opacity:1"
             id="path873" /></g><g
           id="g875"
           transform="translate(346,472.8462)"><path
             d="M 0,0 C 53.764,-31.167 90,-89.352 90,-155.846"
             style="fill:none;stroke:#000000;stroke-width:30;stroke-linecap:round;stroke-linejoin:round;stroke-miterlimit:10;stroke-dasharray:none;stroke-opacity:1"
             id="path877" /></g></g></g></g></svg>
