<svg id="Layer_1" enable-background="new 0 0 468 468" viewBox="0 0 468 468" xmlns="http://www.w3.org/2000/svg"><g><path d="m435.227 297.347c2.313-4.504 3.52-9.482 3.52-14.634 0-17.732-14.426-32.158-32.158-32.158h-359.01c-17.732 0-32.158 14.426-32.158 32.158 0 16.236 12.098 29.692 27.751 31.848l8.506 28.922c4.625 15.724 19.301 26.706 35.691 26.706h174.518c2.703 0 4.895-2.192 4.895-4.895s-2.192-4.895-4.895-4.895h-174.518c-12.076 0-22.89-8.092-26.298-19.677l-7.603-25.85h271.485c-9.542 13.071-15.192 29.155-15.192 46.541 0 43.627 35.493 79.12 79.119 79.12 43.627 0 79.12-35.493 79.12-79.12 0-26.327-12.936-49.675-32.773-64.066zm-46.347 133.394c-38.228 0-69.329-31.101-69.329-69.329-.027-38.216 31.197-69.366 69.329-69.329 37.219-.307 69.586 30.9 69.329 69.329 0 38.228-31.101 69.329-69.329 69.329z"/><path d="m66.146 237.51c.155.014.309.022.462.022 2.498 0 4.631-1.903 4.868-4.44 6.274-67.082 53.442-120.465 115.71-136.667 25.958-6.693 53.72-6.769 79.676-.007 61.858 16.112 109.003 69.031 115.718 135.515.272 2.69 2.676 4.653 5.362 4.379 2.69-.272 4.651-2.672 4.379-5.362-4.118-40.772-23.131-78.473-53.536-106.16-19.185-17.469-41.925-30.019-66.42-36.956v-15.086c0-24.967-20.313-45.279-45.28-45.279s-45.279 20.313-45.279 45.279v15.084c-24.681 6.988-47.572 19.672-66.853 37.352-30.483 27.953-49.385 65.952-53.224 106.997-.253 2.691 1.725 5.077 4.417 5.329z"/><circle cx="288.426" cy="365.294" r="6.854"/><path d="m431.294 356.517h-37.519v-37.519c0-2.703-2.192-4.895-4.895-4.895s-4.895 2.192-4.895 4.895v37.519h-37.519c-2.703 0-4.895 2.192-4.895 4.895s2.192 4.895 4.895 4.895h37.519v37.519c0 2.703 2.192 4.895 4.895 4.895s4.895-2.192 4.895-4.895v-37.519h37.519c2.703 0 4.895-2.192 4.895-4.895s-2.191-4.895-4.895-4.895z"/><path d="m106.424 79.677c1.359 2.363 4.387 3.132 6.687 1.792 2.342-1.352 3.144-4.346 1.792-6.687l-16.341-28.305c-1.352-2.341-4.345-3.144-6.687-1.792s-3.144 4.346-1.792 6.687z"/><path d="m33.196 159.589c4.808.183 6.789-6.829 2.452-9.136l-28.304-16.342c-2.342-1.351-5.336-.549-6.687 1.792-1.352 2.342-.55 5.335 1.792 6.687l28.305 16.342c.77.445 1.612.657 2.442.657z"/><path d="m420.971 159.589c.83 0 1.672-.212 2.443-.657l28.305-16.342c2.342-1.352 3.144-4.346 1.792-6.687s-4.343-3.144-6.687-1.792l-28.305 16.342c-4.338 2.307-2.354 9.319 2.452 9.136z"/><path d="m341.056 81.469c2.3 1.34 5.328.571 6.687-1.792l16.342-28.305c1.352-2.342.55-5.335-1.792-6.687s-5.336-.549-6.687 1.792l-16.342 28.305c-1.352 2.341-.55 5.335 1.792 6.687z"/></g><g/><g/><g/><g/><g/><g/><g/><g/><g/><g/><g/><g/><g/><g/><g/></svg>