<?xml version="1.0" encoding="UTF-8"?>
<svg xmlns="http://www.w3.org/2000/svg" id="Layer_1" data-name="Layer 1" viewBox="0 0 64 64" width="512" height="512"><path d="M2,63H16a1,1,0,0,0,1-1V53a5.006,5.006,0,0,0-5-5h-.206a4.5,4.5,0,1,0-5.588,0H6a5.006,5.006,0,0,0-5,5v9A1,1,0,0,0,2,63ZM9,42a2.5,2.5,0,1,1-2.5,2.5A2.5,2.5,0,0,1,9,42ZM3,53a3,3,0,0,1,3-3h6a3,3,0,0,1,3,3v8H3Z"/><path d="M23,20H41a1,1,0,0,0,1-1V2a1,1,0,0,0-1-1H23a1,1,0,0,0-1,1V19A1,1,0,0,0,23,20ZM31,3h2V7H31ZM24,3h5V8a1,1,0,0,0,1,1h4a1,1,0,0,0,1-1V3h5V18H24Z"/><path d="M59.436,53.646l2.237-4.224a6.419,6.419,0,1,0-11.346,0l2.237,4.224C50.394,54.509,49,56.154,49,58c0,2.8,3.075,5,7,5s7-2.2,7-5C63,56.154,61.606,54.509,59.436,53.646ZM52.1,48.486a4.419,4.419,0,1,1,7.81,0L56,55.863ZM56,61c-2.71,0-5-1.374-5-3,0-1.043,1-2.042,2.5-2.579l1.613,3.047a1,1,0,0,0,1.768,0L58.5,55.421C60,55.958,61,56.957,61,58,61,59.626,58.71,61,56,61Z"/><path d="M59,46a3,3,0,1,0-3,3A3,3,0,0,0,59,46Zm-4,0a1,1,0,1,1,1,1A1,1,0,0,1,55,46Z"/><path d="M39.944,34.194a1.631,1.631,0,0,0-.182-1.277l-1.128-1.868a1.733,1.733,0,0,0-2.3-.6l-.259.144a6.944,6.944,0,0,0-1.243-.7v-.222A1.69,1.69,0,0,0,33.127,28H30.873a1.69,1.69,0,0,0-1.7,1.672v.222a7.065,7.065,0,0,0-1.243.694l-.26-.143a1.732,1.732,0,0,0-2.3.6l-1.127,1.867a1.63,1.63,0,0,0-.183,1.278,1.685,1.685,0,0,0,.812,1.033l.216.119a6.307,6.307,0,0,0,0,1.308l-.216.119a1.685,1.685,0,0,0-.812,1.033,1.631,1.631,0,0,0,.182,1.277l1.128,1.868a1.73,1.73,0,0,0,2.3.6l.259-.144a6.944,6.944,0,0,0,1.243.7v.222A1.69,1.69,0,0,0,30.873,44h2.254a1.69,1.69,0,0,0,1.7-1.672v-.222a7.065,7.065,0,0,0,1.243-.694l.26.143a1.73,1.73,0,0,0,2.3-.6l1.127-1.867a1.63,1.63,0,0,0,.183-1.278,1.685,1.685,0,0,0-.812-1.033l-.216-.119a6.307,6.307,0,0,0,0-1.308l.216-.119A1.685,1.685,0,0,0,39.944,34.194ZM36.95,36a4.445,4.445,0,0,1-.045.626,1.66,1.66,0,0,0,.852,1.673l.107.058-.8,1.319-.179-.1a1.754,1.754,0,0,0-1.876.134,4.957,4.957,0,0,1-1.1.608,1.687,1.687,0,0,0-1.086,1.558V42H31.169v-.123a1.684,1.684,0,0,0-1.086-1.557,5.024,5.024,0,0,1-1.1-.61,1.753,1.753,0,0,0-1.875-.133l-.178.1-.8-1.319.106-.058a1.658,1.658,0,0,0,.853-1.672,4.384,4.384,0,0,1,0-1.253,1.66,1.66,0,0,0-.852-1.673l-.107-.058.8-1.319.179.1a1.752,1.752,0,0,0,1.876-.134,4.957,4.957,0,0,1,1.1-.608,1.687,1.687,0,0,0,1.086-1.558V30h1.662v.123a1.684,1.684,0,0,0,1.086,1.557,5.024,5.024,0,0,1,1.1.61,1.757,1.757,0,0,0,1.875.133l.178-.1.8,1.319-.106.058a1.658,1.658,0,0,0-.853,1.672A4.471,4.471,0,0,1,36.95,36Z"/><path d="M32,32.5A3.5,3.5,0,1,0,35.5,36,3.5,3.5,0,0,0,32,32.5Zm0,5A1.5,1.5,0,1,1,33.5,36,1.5,1.5,0,0,1,32,37.5Z"/><path d="M24.91,60.532l1.59-1.214L24.653,56.9a25.042,25.042,0,0,0,21.931-3.593l-1.168-1.624a23.033,23.033,0,0,1-19.977,3.364l2.685-.84-.6-1.909L21.7,54.12a1,1,0,0,0-.5,1.562Z"/><path d="M54.968,31.858l-1.775-2.3-1.584,1.221,3.727,4.833a1,1,0,0,0,.792.39h.046a1,1,0,0,0,.8-.464l3.266-5.156-1.69-1.07-1.582,2.5A24.887,24.887,0,0,0,47.626,13.48l-1.251,1.561A22.9,22.9,0,0,1,54.968,31.858Z"/><path d="M7.2,36.131l1.982-.262A22,22,0,0,1,9,33a22.856,22.856,0,0,1,6.463-15.968l-.508,2.88,1.969.347,1.061-6.01a1,1,0,0,0-1.159-1.159l-6.01,1.061.348,1.97,2.891-.511A24.843,24.843,0,0,0,7,33,23.9,23.9,0,0,0,7.2,36.131Z"/></svg>
