<svg id="Layer_1" enable-background="new 0 0 500 500" viewBox="0 0 500 500" xmlns="http://www.w3.org/2000/svg"><g><path d="m316.166 414.411c-1.062 0-2.13-.215-3.136-.654-2.808-1.221-4.646-3.961-4.716-7.021l-1.221-52.841c-.101-4.336 3.332-7.935 7.671-8.034 4.333-.187 7.935 3.333 8.034 7.671l.832 35.895 26.848-23.836c3.25-2.884 8.215-2.583 11.089.657 2.882 3.247 2.587 8.212-.657 11.089l-39.527 35.09c-1.468 1.303-3.33 1.984-5.217 1.984z"/><path d="m311.76 424.521c-1.049 0-2.114-.212-3.132-.657-3.98-1.734-5.799-6.361-4.066-10.337l4.403-10.107c1.734-3.986 6.376-5.796 10.337-4.065 3.98 1.733 5.799 6.361 4.066 10.337l-4.403 10.107c-1.289 2.958-4.177 4.722-7.205 4.722z"/><path d="m437.73 195.599c-2.948 0-5.941-.589-8.812-1.841l-33.712-14.685c-5.425-2.363-9.602-6.696-11.765-12.2-2.167-5.505-2.056-11.522.307-16.943 2.362-5.422 6.693-9.599 12.197-11.765 5.505-2.167 11.525-2.059 16.944.307l33.716 14.685c11.193 4.876 16.333 17.95 11.457 29.144-3.624 8.324-11.782 13.298-20.332 13.298zm-33.681-43.262c-.795 0-1.593.147-2.354.448-1.598.629-2.856 1.844-3.544 3.418-.687 1.577-.718 3.324-.089 4.922.626 1.599 1.841 2.857 3.415 3.545l33.713 14.685c1.577.687 3.326.721 4.925.089 1.599-.629 2.856-1.841 3.544-3.416 1.418-3.252-.077-7.051-3.329-8.469l-33.713-14.685c-.825-.359-1.697-.537-2.568-.537z"/><path d="m446.464 170.069c-1.691 0-3.354-.476-4.67-1.547-.589-.479-1.059-.786-1.473-.97l-33.701-14.676c-.411-.181-.951-.313-1.696-.414-2.434-.338-4.572-1.795-5.775-3.937-1.203-2.145-1.332-4.728-.35-6.981l18.53-42.537c6.625-15.205 24.392-22.179 39.589-15.566 7.367 3.209 13.044 9.095 15.98 16.572 2.94 7.478 2.793 15.652-.417 23.02l-18.294 41.995c-.982 2.252-3.077 4.188-5.465 4.768-.737.178-1.501.273-2.258.273zm-29.891-29.994 26.349 11.476 15.155-34.793c3.167-7.266-.169-15.75-7.434-18.913-7.263-3.161-15.744.172-18.911 7.434z"/><path d="m355.693 379.32c-1.07 0-2.138-.218-3.136-.654l-40.749-17.751c-3.979-1.733-5.799-6.36-4.065-10.337l80.113-183.915c.982-2.255 2.964-3.921 5.354-4.498 2.391-.577 4.916-.006 6.815 1.55.577.473 1.036.773 1.448.951l33.716 14.689c.414.181.951.313 1.696.414 2.434.338 4.573 1.795 5.775 3.937 1.203 2.145 1.332 4.728.35 6.981l-80.116 183.915c-.832 1.911-2.388 3.412-4.326 4.173-.926.364-1.899.545-2.875.545zm-30.411-29.672 26.346 11.479 73.609-168.975-26.349-11.475z"/><path d="m370.857 344.509c-1.049 0-2.111-.211-3.133-.656l-40.752-17.754c-3.98-1.734-5.799-6.361-4.066-10.338 1.73-3.986 6.358-5.802 10.338-4.065l40.752 17.753c3.98 1.734 5.799 6.361 4.066 10.338-1.289 2.958-4.176 4.722-7.205 4.722z"/><path d="m109.084 132.687c-6.161 0-12.139-2.55-16.398-6.996l-28.1-29.295c-8.668-9.036-8.367-23.449.666-32.124 9.058-8.665 23.465-8.361 32.13.672l9.242 9.635 21.412-29.635c3.556-4.925 8.818-8.168 14.817-9.132 5.99-.945 11.998.47 16.913 4.029 4.91 3.547 8.15 8.803 9.116 14.796.964 5.993-.463 12.001-4.016 16.919l-37.368 51.715c-3.955 5.48-10.095 8.892-16.846 9.359-.513.038-1.044.057-1.568.057zm-28.101-59.019c-1.749 0-3.501.645-4.86 1.946-2.78 2.67-2.872 7.119-.196 9.908l28.101 29.297c1.313 1.372 3.154 2.157 5.057 2.157l.47-.015c2.098-.147 3.989-1.197 5.206-2.884l37.371-51.722c1.096-1.519 1.537-3.373 1.24-5.219-.298-1.85-1.298-3.471-2.814-4.566-1.521-1.105-3.375-1.541-5.213-1.246-1.854.298-3.477 1.301-4.576 2.82l-26.929 37.272c-1.366 1.891-3.498 3.074-5.821 3.237-2.372.16-4.602-.717-6.217-2.399l-15.762-16.435c-1.372-1.43-3.212-2.151-5.057-2.151z"/><path d="m94.825 166.175c-38.503 0-69.825-31.323-69.825-69.825s31.322-69.825 69.825-69.825c16.474 0 32.486 5.876 45.082 16.541 3.225 2.731 3.713 7.527 1.101 10.85-.107.135-.295.35-.466.543l-26.702 36.957c-1.366 1.891-3.498 3.074-5.821 3.237-2.372.16-4.602-.717-6.217-2.399l-15.762-16.435c-2.675-2.795-7.128-2.881-9.917-.206-2.78 2.67-2.872 7.119-.196 9.908l28.101 29.297c1.313 1.372 3.154 2.157 5.057 2.157 2.568-.163 4.458-1.212 5.676-2.899.003-.003 31.728-43.91 31.728-43.91 1.697-2.35 4.56-3.55 7.423-3.185 2.872.39 5.296 2.328 6.306 5.044 2.942 7.907 4.434 16.091 4.434 24.323-.002 38.504-31.324 69.827-69.827 69.827zm0-123.939c-29.84 0-54.114 24.274-54.114 54.114s24.274 54.115 54.114 54.115c29.841 0 54.115-24.274 54.115-54.115 0-.887-.021-1.774-.068-2.657l-21.375 29.579c-3.958 5.483-10.098 8.892-16.846 9.359-6.523.488-13.341-2.118-17.965-6.941l-28.1-29.294c-8.668-9.036-8.367-23.449.666-32.124 9.058-8.665 23.465-8.361 32.13.672l9.242 9.635 17.242-23.863c-8.645-5.507-18.725-8.48-29.041-8.48z"/><path d="m109.084 286.335c-6.158 0-12.136-2.547-16.398-6.99l-28.101-29.297c-8.665-9.039-8.367-23.449.666-32.124 9.058-8.662 23.465-8.355 32.127.666l9.245 9.641 21.412-29.635c3.556-4.925 8.815-8.168 14.811-9.132 6.011-.954 12.001.47 16.916 4.023 4.913 3.553 8.153 8.809 9.119 14.802.964 5.993-.463 12.001-4.016 16.919l-37.368 51.712c-3.958 5.486-10.101 8.898-16.852 9.359-.506.037-1.037.056-1.561.056zm-28.101-59.019c-1.749 0-3.501.648-4.86 1.949-2.78 2.67-2.872 7.119-.196 9.908l28.101 29.297c1.31 1.369 3.154 2.154 5.057 2.154l.47-.015c2.098-.144 3.989-1.197 5.206-2.884l37.371-51.718c2.265-3.133 1.556-7.524-1.577-9.788-1.515-1.096-3.36-1.544-5.212-1.243-1.85.298-3.474 1.298-4.573 2.82l-26.928 37.272c-1.366 1.89-3.498 3.074-5.824 3.237-2.329.147-4.599-.718-6.214-2.399l-15.764-16.438c-1.372-1.43-3.212-2.152-5.057-2.152z"/><path d="m94.825 319.826c-38.503 0-69.825-31.322-69.825-69.824s31.322-69.828 69.825-69.828c16.478 0 32.489 5.875 45.085 16.547 3.243 2.747 3.713 7.579 1.055 10.899-.095.12-.264.313-.421.488l-26.704 36.959c-1.366 1.89-3.498 3.074-5.824 3.237-2.329.147-4.599-.718-6.214-2.399l-15.762-16.437c-2.675-2.789-7.128-2.881-9.917-.202-2.78 2.67-2.872 7.119-.196 9.908l28.101 29.297c1.31 1.369 3.154 2.154 5.057 2.154 2.568-.16 4.458-1.212 5.676-2.899.003-.003 31.728-43.91 31.728-43.91 1.697-2.35 4.56-3.568 7.423-3.185 2.872.39 5.296 2.328 6.306 5.048 2.942 7.907 4.434 16.091 4.434 24.323-.002 38.502-31.324 69.824-69.827 69.824zm0-123.942c-29.84 0-54.114 24.277-54.114 54.117s24.274 54.114 54.114 54.114c29.841 0 54.115-24.274 54.115-54.114 0-.887-.021-1.774-.068-2.661l-21.375 29.58c-3.961 5.486-10.104 8.898-16.852 9.359-6.449.473-13.338-2.117-17.959-6.935l-28.101-29.297c-8.665-9.039-8.367-23.449.666-32.124 9.058-8.662 23.465-8.361 32.127.669l9.245 9.638 17.242-23.863c-8.641-5.507-18.724-8.483-29.04-8.483z"/><path d="m109.084 439.986c-6.161 0-12.139-2.55-16.398-6.996l-28.098-29.291c-8.668-9.039-8.37-23.449.663-32.124 9.058-8.665 23.468-8.364 32.13.669l9.242 9.635 21.412-29.635c3.553-4.922 8.812-8.162 14.802-9.128 5.99-.964 12.007.46 16.926 4.023 4.913 3.55 8.153 8.806 9.119 14.799.964 5.993-.463 12.001-4.016 16.92l-37.368 51.715c-3.955 5.48-10.095 8.892-16.846 9.359-.513.036-1.044.054-1.568.054zm-28.101-59.018c-1.749 0-3.498.648-4.857 1.949-2.783 2.669-2.875 7.119-.2 9.908l28.098 29.294c1.316 1.372 3.157 2.157 5.06 2.157l.47-.015c2.098-.147 3.989-1.197 5.206-2.885l37.371-51.721c1.096-1.519 1.537-3.373 1.24-5.219-.298-1.85-1.298-3.471-2.814-4.566-1.525-1.098-3.366-1.549-5.219-1.242-1.851.298-3.471 1.297-4.57 2.816l-26.928 37.272c-1.366 1.89-3.498 3.074-5.821 3.237-2.372.175-4.602-.718-6.217-2.399l-15.762-16.435c-1.372-1.43-3.212-2.151-5.057-2.151z"/><path d="m94.825 473.475c-38.503 0-69.825-31.323-69.825-69.825 0-38.503 31.322-69.825 69.825-69.825 16.474 0 32.486 5.875 45.082 16.541 3.225 2.731 3.713 7.527 1.101 10.85-.107.135-.295.35-.466.543l-26.701 36.956c-1.366 1.89-3.498 3.074-5.821 3.237-2.372.175-4.602-.718-6.217-2.399l-15.763-16.434c-2.675-2.79-7.125-2.879-9.914-.202-2.783 2.669-2.875 7.119-.2 9.908l28.098 29.294c1.316 1.372 3.157 2.157 5.06 2.157 2.568-.163 4.458-1.212 5.676-2.9.003-.003 31.728-43.909 31.728-43.909 1.697-2.351 4.56-3.565 7.423-3.185 2.872.39 5.296 2.329 6.306 5.044 2.942 7.907 4.434 16.091 4.434 24.323-.001 38.503-31.323 69.826-69.826 69.826zm0-123.94c-29.84 0-54.114 24.275-54.114 54.115s24.274 54.114 54.114 54.114c29.841 0 54.115-24.274 54.115-54.114 0-.887-.021-1.774-.068-2.658l-21.375 29.58c-3.958 5.483-10.098 8.892-16.846 9.359-6.523.476-13.341-2.115-17.965-6.941l-28.098-29.291c-8.668-9.039-8.37-23.449.663-32.124 9.058-8.665 23.468-8.364 32.13.669l9.242 9.635 17.242-23.863c-8.644-5.508-18.724-8.481-29.04-8.481z"/><path d="m338.523 166.175h-145.094c-4.339 0-7.855-3.516-7.855-7.855s3.516-7.855 7.855-7.855h145.094c4.339 0 7.855 3.517 7.855 7.855-.001 4.339-3.517 7.855-7.855 7.855z"/><path d="m362.606 121.41h-169.177c-4.339 0-7.855-3.516-7.855-7.855s3.516-7.856 7.855-7.856h169.178c4.339 0 7.855 3.517 7.855 7.856-.001 4.339-3.517 7.855-7.856 7.855z"/><path d="m280.977 319.826h-87.548c-4.339 0-7.855-3.516-7.855-7.855s3.516-7.856 7.855-7.856h87.548c4.339 0 7.855 3.517 7.855 7.856s-3.516 7.855-7.855 7.855z"/><path d="m295.509 275.058h-102.08c-4.339 0-7.855-3.516-7.855-7.855s3.516-7.856 7.855-7.856h102.08c4.339 0 7.856 3.516 7.856 7.856 0 4.339-3.517 7.855-7.856 7.855z"/><path d="m360.314 473.475h-166.885c-4.339 0-7.855-3.516-7.855-7.855s3.516-7.855 7.855-7.855h166.885c4.339 0 7.856 3.517 7.856 7.855s-3.517 7.855-7.856 7.855z"/><path d="m261.1 428.71h-67.671c-4.339 0-7.855-3.516-7.855-7.855s3.516-7.856 7.855-7.856h67.671c4.339 0 7.855 3.516 7.855 7.856 0 4.338-3.516 7.855-7.855 7.855z"/></g></svg>