<svg id="Layer_1" enable-background="new 0 0 100 100" height="100" viewBox="0 0 100 100" width="100" xmlns="http://www.w3.org/2000/svg"><g><path d="m61.525 42.824c-.788.136-1.147 1.821-.803 3.762.317 1.782 1.119 3.159 1.863 3.263.943 2.539 2.438 5.006 4.284 6.807 1.044 1.022 2.204 1.831 3.437 2.321.851.335 1.737.525 2.65.525.907 0 1.794-.187 2.645-.525 1.277-.508 2.475-1.355 3.547-2.427 1.803-1.798 3.263-4.228 4.184-6.723.714-.208 1.458-1.542 1.763-3.245.329-1.848.02-3.459-.694-3.726.025-.451.042-.908.041-1.375-.017-6.697-3.944-11.119-10.134-11.534-5.397-.363-9.465 1.782-11.316 5.345-.624 1.199-.977 3.229-1.116 4.859-.209.849-.329 1.731-.329 2.645h.022c0 .008-.002.014-.003.02-.016.004-.026.006-.041.008zm1.238 2.036c.075-.227.178-.404.313-.498.057-.04.117-.068.179-.079.148-.024.302.032.453.152h.001c0-.011.001-.024.001-.034.028-.282.254-1.798 1.199-3.001.732-.934 1.904-1.678 3.756-1.508 0 0 3.711 1.367 7.087.158.362-.007.718-.01 1.043.001 1.397.052 2.354.777 3.358 1.244-.034-.46-.391-.932-.373-1.245.161.046.306.115.446.189.722.769 1.422 2.06 1.974 4.167v.025c.007-.001.007-.001.009-.002v.002l.009-.009c.072-.057.148-.1.222-.124.039-.015.077-.009.116-.012.033-.003.07-.015.101-.009h.002c.035.005.072.019.104.032.345.163.543.81.526 1.643-.005.275-.033.572-.089.881-.014.081-.034.152-.054.23-.183.834-.517 1.518-.873 1.821-.078.069-.166.118-.246.145-.077.024-.151.036-.227.022-.081-.013-.161-.057-.23-.122-.855 2.662-2.488 5.313-4.546 6.926-.305.235-.618.451-.938.64-.978.575-2.03.913-3.126.913-1.427 0-2.781-.565-3.988-1.488-2.095-1.606-3.759-4.292-4.625-6.991-.071.065-.15.107-.234.122-.177.031-.365-.059-.544-.235-.364-.364-.696-1.1-.854-1.982-.01-.058-.017-.114-.023-.172 0-.612.03-1.21.071-1.802z"/><path d="m57.217 63.416c1.394 1.797 2.555 4.038 3.471 6.675h34.312c-.025-.237-.064-.475-.132-.707-.779-2.701-1.765-4.559-2.778-5.866-1.972-2.545-4.044-2.954-4.927-3.124-.108-.02-.198-.038-.271-.054-.984-.23-2.115-.298-3.112-.354-.802-.048-1.568-.089-2.191-.214-.725 1.917-4.287 3.312-8.675 3.312-4.39 0-7.948-1.395-8.674-3.312-.627.125-1.393.168-2.194.214-.997.057-2.126.124-3.111.354-.073.016-.164.034-.272.054-.598.116-1.743.34-3.033 1.262.531.509 1.065 1.086 1.587 1.76z"/><path d="m8.845 65.513c-1.333 1.558-2.656 3.894-3.687 7.436-.08.277-.126.559-.158.842h52.322c-.031-.28-.076-.561-.155-.837-.925-3.199-2.091-5.398-3.292-6.946-2.333-3.014-4.788-3.499-5.834-3.699-.128-.024-.235-.045-.321-.063-1.166-.274-2.506-.354-3.687-.421-.95-.056-1.856-.104-2.595-.253-.858 2.271-5.076 3.922-10.272 3.922-5.198 0-9.413-1.651-10.271-3.922-.742.148-1.65.199-2.598.255-1.181.065-2.518.145-3.684.419-.088.019-.195.039-.323.063-.988.19-3.231.621-5.445 3.204z"/><path d="m24.029 57.899c1.23 1.203 2.597 2.154 4.051 2.732 1.005.396 2.056.62 3.137.62 1.075 0 2.125-.22 3.131-.62 1.396-.555 2.708-1.454 3.899-2.585.101-.097.203-.19.302-.289.291-.29.572-.597.847-.912 1.745-2.005 3.165-4.497 4.107-7.049.845-.247 1.727-1.826 2.088-3.842.389-2.188.022-4.096-.824-4.412.031-.535.05-1.076.048-1.627-.02-7.931-4.67-13.167-12.001-13.659-6.391-.43-11.207 2.11-13.4 6.33-.739 1.42-1.158 3.824-1.322 5.754-.247 1.005-.39 2.049-.39 3.131h.027c0 .01-.002.017-.003.024-.019.001-.03.004-.047.006-.934.162-1.36 2.157-.95 4.455.376 2.11 1.325 3.741 2.207 3.865.943 2.54 2.357 5.014 4.091 7.009.318.365.644.722.983 1.053.007.006.013.011.019.016zm-3.286-9.021c-.208.037-.433-.07-.644-.279-.433-.432-.824-1.302-1.01-2.347-.012-.069-.021-.135-.029-.204.003-.726.037-1.435.085-2.135.089-.27.211-.479.37-.59.067-.047.139-.081.213-.094.174-.029.356.039.535.181h.002c0-.013.001-.028.001-.041.035-.334.302-2.129 1.421-3.554.868-1.105 2.254-1.987 4.448-1.785 0 0 4.395 1.619 8.392.187.43-.008.85-.012 1.235.001 1.655.061 2.789.919 3.977 1.472-.041-.545-.462-1.103-.441-1.474.19.054.361.137.527.224.855.911 1.684 2.439 2.339 4.935v.029c.006-.001.006-.001.01-.002v.002l.011-.011c.085-.067.174-.118.261-.146.046-.018.092-.012.138-.015.04-.003.084-.018.119-.01h.002c.042.006.086.022.124.038.408.192.644.958.624 1.944-.006.326-.039.679-.105 1.043-.017.096-.041.18-.064.273-.216.988-.612 1.798-1.033 2.157-.094.082-.197.14-.292.171-.091.029-.178.043-.268.027-.097-.016-.19-.067-.273-.145-1.014 3.153-2.946 6.292-5.383 8.202-.361.28-.731.535-1.112.758-1.157.682-2.404 1.082-3.702 1.082-1.689 0-3.293-.67-4.722-1.764-2.481-1.9-4.452-5.081-5.478-8.278-.085.081-.179.131-.278.148z"/></g></svg>