<svg id="Layer_1" viewBox="0 0 512 512" xmlns="http://www.w3.org/2000/svg" data-name="Layer 1"><path d="m358.55 254.751q2.535-1.331 5.209-2.411a59.545 59.545 0 0 1 22.49-4.373h65.572a60.4 60.4 0 0 1 60.179 60.185v31.17a1.045 1.045 0 0 1 -.33.75 1.071 1.071 0 0 1 -.75.326h-113.67v-5.921a101.436 101.436 0 0 0 -29.872-71.866 102.662 102.662 0 0 0 -8.828-7.86zm-243.801 85.649h-113.67a1.062 1.062 0 0 1 -.75-.326 1.088 1.088 0 0 1 -.331-.75v-31.17a60.406 60.406 0 0 1 60.2-60.185h65.558a59.51 59.51 0 0 1 22.49 4.373c1.778.722 3.519 1.524 5.208 2.411a102.649 102.649 0 0 0 -8.827 7.86 101.437 101.437 0 0 0 -29.873 71.866v5.921zm180.758-81.179h-79.018a75.522 75.522 0 0 0 -75.259 75.258v37.561a4.06 4.06 0 0 0 4.02 4.02h221.51a4 4 0 0 0 2.821-1.189 4.039 4.039 0 0 0 1.189-2.831v-37.563a75.522 75.522 0 0 0 -75.263-75.258zm-5.1-109.019a48.671 48.671 0 1 0 14.247 34.407 48.514 48.514 0 0 0 -14.242-34.409zm155.583 13.109a38.125 38.125 0 1 0 11.163 26.958 38.037 38.037 0 0 0 -11.163-26.958zm-326.07 0a38.1 38.1 0 1 0 11.172 26.958 37.98 37.98 0 0 0 -11.172-26.958z" fill="#03a9f4" fill-rule="evenodd"/></svg>