<svg clip-rule="evenodd" fill-rule="evenodd" height="512" stroke-linejoin="round" stroke-miterlimit="2" viewBox="0 0 48 48" width="512" xmlns="http://www.w3.org/2000/svg"><g transform="translate(-432 -48)"><g id="Icon"><path d="m478 54c0-1.061-.421-2.078-1.172-2.828-.75-.751-1.767-1.172-2.828-1.172h-36c-1.061 0-2.078.421-2.828 1.172-.751.75-1.172 1.767-1.172 2.828v36c0 1.061.421 2.078 1.172 2.828.75.751 1.767 1.172 2.828 1.172h36c1.061 0 2.078-.421 2.828-1.172.751-.75 1.172-1.767 1.172-2.828z" fill="#78909c"/><g transform="translate(3.997 -4)"><path d="m470.006 59.994c0-1.104-.896-2-2-2h-32.006c-1.105 0-2 .896-2 2v32.006c0 1.105.895 2 2 2h32.006c1.104 0 2-.895 2-2z" fill="#f5f5f5"/></g><g transform="translate(3.997 -6)"><circle cx="452" cy="78" fill="#ffc928" r="8"/></g><g transform="translate(29.997 -2)"><path d="m438 75h2c.552 0 1-.448 1-1s-.448-1-1-1h-2c-.552 0-1 .448-1 1s.448 1 1 1z" fill="#ffc928"/></g><g transform="matrix(.866 -.5 .5 .866 50.07 220.914)"><path d="m438 75h2c.552 0 1-.448 1-1s-.448-1-1-1h-2c-.552 0-1 .448-1 1s.448 1 1 1z" fill="#ffc928"/></g><g transform="matrix(.5 -.866 .866 .5 178.911 403.927)"><path d="m438 75h2c.552 0 1-.448 1-1s-.448-1-1-1h-2c-.552 0-1 .448-1 1s.448 1 1 1z" fill="#ffc928"/></g><g transform="matrix(0 -1 1 0 381.997 498)"><path d="m438 75h2c.552 0 1-.448 1-1s-.448-1-1-1h-2c-.552 0-1 .448-1 1s.448 1 1 1z" fill="#ffc928"/></g><g transform="matrix(-.5 -.866 .866 -.5 604.911 477.927)"><path d="m438 75h2c.552 0 1-.448 1-1s-.448-1-1-1h-2c-.552 0-1 .448-1 1s.448 1 1 1z" fill="#ffc928"/></g><g transform="matrix(-.866 -.5 .5 -.866 787.924 349.086)"><path d="m438 75h2c.552 0 1-.448 1-1s-.448-1-1-1h-2c-.552 0-1 .448-1 1s.448 1 1 1z" fill="#ffc928"/></g><g transform="translate(3.997 -4)"><g><path d="m450.402 79.002c-1.518-1.898-3.816-3.002-6.246-3.002-1.418 0-2.967 0-4.156 0-1.105 0-2 .895-2 2v10c0 1.105.895 2 2 2h24c.53 0 1.039-.211 1.414-.586s.586-.884.586-1.414c0-1.001 0-2.003 0-2.003h-6.156c-2.43 0-4.728-1.104-6.246-3.001-1.011-1.264-2.185-2.731-3.196-3.994z" fill="#25c6da"/></g><g><path d="m453.161 82.449.437.547c1.518 1.897 3.816 3.001 6.246 3.001h6.156s0-2.253 0-3.997c0-1.105-.895-2-2-2-1.936 0-4.494 0-6.004 0-1.985 0-3.744.964-4.835 2.449z" fill="#00acc2"/></g></g></g></g></svg>