<svg id="line" height="512" viewBox="0 0 64 64" width="512" xmlns="http://www.w3.org/2000/svg"><path d="m40.99805 22.98145a9.00776 9.00776 0 0 0 -8.99805-8.99805c-11.929.47161-11.92471 17.52689.00009 17.99708a9.00859 9.00859 0 0 0 8.99796-8.99903zm-15.9961 0a7.00641 7.00641 0 0 1 6.99805-6.99805c9.26241.32906 9.259 13.66964-.00012 13.99708a7.00661 7.00661 0 0 1 -6.99788-6.99903z"/><path d="m37.84174 49.42029c5.41217-6.47351 13.13971-17.3122 13.13971-26.43884-1.038-25.1731-36.92112-25.18239-37.96293.00014 0 9.1265 7.72757 19.96519 13.13974 26.4387-4.06433.93036-6.51959 2.76935-6.51959 4.97815 0 3.63867 6.36914 5.60156 12.36133 5.60156s12.36133-1.96289 12.36133-5.60156c0-2.2088-2.45526-4.04779-6.51959-4.97815zm-5.84174-43.42029a17.00109 17.00109 0 0 1 16.98145 16.98145c0 11.41601-13.68555 26.50976-16.98145 29.97855-3.2959-3.46875-16.98145-18.5625-16.98145-29.97851a17.00109 17.00109 0 0 1 16.98145-16.98149zm0 52c-10.21073-.17811-14.91815-4.72084-4.34543-6.82892 1.9913 2.27789 3.43674 3.73328 3.63938 3.93537a.99986.99986 0 0 0 1.4121 0c.20264-.20208 1.64808-1.65747 3.63935-3.93542 10.57281 2.10819 5.86529 6.6508-4.3454 6.82897z"/></svg>