<svg clip-rule="evenodd" fill-rule="evenodd" height="512" stroke-linejoin="round" stroke-miterlimit="2" viewBox="0 0 32 32" width="512" xmlns="http://www.w3.org/2000/svg"><g transform="translate(-48)"><path d="m70 31h6c1.657 0 3-1.343 3-3v-6c0-.552-.448-1-1-1s-1 .448-1 1v6c0 .552-.448 1-1 1h-6c-.552 0-1 .448-1 1s.448 1 1 1zm-12-2h-6c-.552 0-1-.448-1-1v-6c0-.552-.448-1-1-1s-1 .448-1 1v6c0 1.657 1.343 3 3 3h6c.552 0 1-.448 1-1s-.448-1-1-1zm5-9v6c0 .552.448 1 1 1s1-.448 1-1v-6c0-.552-.448-1-1-1s-1 .448-1 1zm-2 0c0-.552-.448-1-1-1h-6c-.552 0-1 .448-1 1v6c0 .552.448 1 1 1h6c.552 0 1-.448 1-1zm14 0c0-.552-.448-1-1-1h-6c-.552 0-1 .448-1 1v6c0 .552.448 1 1 1h6c.552 0 1-.448 1-1zm-16 1v4h-4v-4zm14 0v4h-4v-4zm-10-4h1c.552 0 1-.448 1-1s-.448-1-1-1h-1c-.552 0-1 .448-1 1s.448 1 1 1zm-9 0h5c.552 0 1-.448 1-1s-.448-1-1-1h-5c-.552 0-1 .448-1 1s.448 1 1 1zm18-2h1v1c0 .552.448 1 1 1s1-.448 1-1v-2c0-.552-.448-1-1-1h-2c-.552 0-1 .448-1 1s.448 1 1 1zm-3 1v-5h1c.552 0 1-.448 1-1s-.448-1-1-1h-2c-.552 0-1 .448-1 1v6c0 .552.448 1 1 1s1-.448 1-1zm-6-6v2c0 .552.448 1 1 1s1-.448 1-1v-2c0-.552-.448-1-1-1s-1 .448-1 1zm-2-4c0-.552-.448-1-1-1h-6c-.552 0-1 .448-1 1v6c0 .552.448 1 1 1h6c.552 0 1-.448 1-1zm-3-5h-6c-1.657 0-3 1.343-3 3v6c0 .552.448 1 1 1s1-.448 1-1v-6c0-.552.448-1 1-1h6c.552 0 1-.448 1-1s-.448-1-1-1zm1 6v4h-4v-4zm11-4h6c.552 0 1 .448 1 1v6c0 .552.448 1 1 1s1-.448 1-1v-6c0-1.657-1.343-3-3-3h-6c-.552 0-1 .448-1 1s.448 1 1 1zm-6 4h9v3c0 .552.448 1 1 1s1-.448 1-1v-4c0-.552-.448-1-1-1h-10c-.552 0-1 .448-1 1s.448 1 1 1z"/></g></svg>