<svg id="Layer_1" height="512" viewBox="0 0 512 512" width="512" xmlns="http://www.w3.org/2000/svg" data-name="Layer 1"><path d="m351.082 0h-190.164a46.447 46.447 0 0 0 -46.4 46.394v419.212a46.447 46.447 0 0 0 46.4 46.394h190.164a46.447 46.447 0 0 0 46.395-46.394v-419.212a46.447 46.447 0 0 0 -46.395-46.394zm30.363 465.606a30.4 30.4 0 0 1 -30.363 30.363h-190.164a30.4 30.4 0 0 1 -30.363-30.363v-419.212a30.4 30.4 0 0 1 30.363-30.363h190.164a30.4 30.4 0 0 1 30.363 30.363z"/><path d="m267.965 462.253h-23.93a8.016 8.016 0 0 0 0 16.031h23.93a8.016 8.016 0 0 0 0-16.031z"/><path d="m206.719 54.054h98.562a8.016 8.016 0 0 0 0-16.031h-98.562a8.016 8.016 0 0 0 0 16.031z"/><path d="m249.108 206.177a10.126 10.126 0 0 0 -10.114-10.114h-33.845a10.125 10.125 0 0 0 -10.114 10.114v33.846a10.125 10.125 0 0 0 10.114 10.113h33.845a10.126 10.126 0 0 0 10.114-10.113zm-16.032 27.923h-22.009v-22h22.009z"/><path d="m316.965 206.177a10.125 10.125 0 0 0 -10.114-10.114h-33.845a10.126 10.126 0 0 0 -10.114 10.114v33.846a10.126 10.126 0 0 0 10.114 10.113h33.845a10.125 10.125 0 0 0 10.114-10.113zm-16.032 27.923h-22.009v-22h22.009z"/><path d="m288.386 299.9h-9.462v-3.62a8.016 8.016 0 1 0 -16.032 0v8.994a10.67 10.67 0 0 0 10.658 10.658h14.836a8.016 8.016 0 0 0 0-16.032z"/><path d="m238.994 261.864h-33.845a10.125 10.125 0 0 0 -10.114 10.114v33.846a10.125 10.125 0 0 0 10.114 10.113h33.845a10.126 10.126 0 0 0 10.114-10.113v-33.846a10.126 10.126 0 0 0 -10.114-10.114zm-5.918 38.036h-22.009v-22h22.009z"/><path d="m308.949 296.916a8.016 8.016 0 0 0 8.016-8.016v-16.378a10.67 10.67 0 0 0 -10.658-10.658h-35.4a8.016 8.016 0 1 0 0 16.031h30.025v11a8.017 8.017 0 0 0 8.017 8.021z"/><path d="m203.051 331.263h-22.314v-23.342a8.016 8.016 0 0 0 -16.032 0v28.716a10.67 10.67 0 0 0 10.658 10.663h27.688a8.016 8.016 0 0 0 0-16.032z"/><path d="m339.279 299.9a8.016 8.016 0 0 0 -8.016 8.016v23.342h-22.314a8.016 8.016 0 0 0 0 16.032h27.688a10.67 10.67 0 0 0 10.663-10.653v-28.716a8.017 8.017 0 0 0 -8.021-8.021z"/><path d="m336.637 164.705h-27.688a8.016 8.016 0 1 0 0 16.031h22.314v23.343a8.016 8.016 0 0 0 16.032 0v-28.716a10.67 10.67 0 0 0 -10.658-10.658z"/><path d="m172.721 212.1a8.016 8.016 0 0 0 8.016-8.016v-23.348h22.314a8.016 8.016 0 1 0 0-16.031h-27.688a10.67 10.67 0 0 0 -10.658 10.658v28.716a8.017 8.017 0 0 0 8.016 8.021z"/></svg>