<svg id="Layer_51_1_" height="512" viewBox="0 0 307.2 527.2" width="512" xmlns="http://www.w3.org/2000/svg"><g><path d="m307.2 311.4c0-4.9-1.6-9.6-4.7-13.6l-.1-.2-54.8-59.9v-193-5.7-.1-4.2h-.2c-2.2-19.5-18.7-34.7-38.7-34.7h-169.7c-20.1 0-36.6 15.2-38.8 34.7h-.2v4.2 5.7 321 33.1c0 21.5 17.5 39 39 39h126c3.3 9.4 8.4 16.1 11 19v16.5 54h131.4v-54-161.8zm-268.2-301.4h169.7c14.5 0 26.5 10.7 28.6 24.7h-227c2.1-14 14.1-24.7 28.7-24.7zm161.1 83.1v34.2h-17.3v-15.7h-38v15.7h-6.9v-5.6h-8.6v5.6h-24.1v-15.7h-38v15.7h-17.7v-33.8h58.6v-8.8h-67.4v42.6h-30.7v-82.6h227.6v82.7h-28.7v-43h-66.7v8.8h57.9zm-46.7 44.2h20.8v3.7h-20.8zm0-10v-7.1h20.8v7.1zm-77.7 10h20.8v3.7h-20.8zm0-10v-7.1h20.8v7.1zm-65.7 10h30.7v14.1h8.8v-14.1h17.6v12.3h38v-12.3h24.1v5.1h-8.6v8.6h-8.6v5.3h8.6v8.2h-8.5v.1h-17.3v-8.6h-8.6v8.6h-8.6v8.6h8v8.7h9.2v-8.7h8.2v8.7h9.1v-8.7h8.7v-8.2h8.5v-14h8.6v-13.7h6.9v12.3h38v-12.3h17.3v14.5h8.8v-14.5h28.7v89.4 14.8 68l-24.5-28.5c-8.7-10.7-24.5-12.7-36.1-4.5-5.8 4.1-9.6 10.1-10.6 16.8-1 6.5.6 12.9 4.5 18.2l33.8 47.3c-.3 1.6-.6 3.9-.9 6.8h-193.8zm152.5 290.4h-123.5c-16 0-29-13-29-29v-23.1h193c-.5 9.9-.2 22 2.8 32 2.4 7.7 5.2 14.2 8.4 19.5-.7.1-1.5.3-2.3.3-.3 0-.7.1-1 .1-.2 0-.4 0-.6 0-.6 0-1.1.1-1.7.1h-36.1-10zm13.2 10h33c.7 0 1.4 0 2.1-.1h.6c.7 0 1.3-.1 1.9-.2h.2c.3 0 .7-.1 1-.1h.2c.5-.1.9-.2 1.4-.2h.2c.4-.1.7-.1 1-.2 1-.2 1.9-.5 2.9-.8 9.6 11.8 20.4 16.7 28 20.1l1.7.8 4.2-9.1-1.7-.8c-6.5-2.9-15-6.8-22.7-15.4-2.1-2.3-4.1-5-6-8-3.1-5-6-11.2-8.3-18.8-2.7-8.8-2.9-19.9-2.3-29.1.2-3.8.6-7.2.9-10 .5-4.3 1-7 1-7.1l.4-2.1-36.4-50.9-.1-.1c-2.3-3.1-3.3-6.9-2.7-10.7.7-4.1 3-7.7 6.5-10.2 5.7-4.1 13.4-4.1 18.9-.6l-8.2 6.9c-2.1 1.8-2.4 4.9-.6 7 1 1.2 2.4 1.8 3.8 1.8 1.1 0 2.3-.4 3.2-1.2l8.8-7.4 28.9 33.7 10 11.7 3.4 3.9 1.2.5c.2.1 15.5 5.8 22.7 25l9.4-3.5c-7.5-20.2-22.7-28.3-27.3-30.3l-9.4-10.9v-68.8l47.1 51.5c1.6 2.2 2.5 4.7 2.5 7.4v156.8h-111.2v-15.5l-1.5-1.5c-.1-.1-5.1-5.1-8.7-13.5zm121.5 79.5h-111.3v-39h111.4v39z"/><path d="m144.8 227.3h38v-38h-38zm8.6-29.4h20.8v20.8h-20.8z"/><path d="m105.1 189.3h-38v38h38zm-8.6 29.4h-20.8v-20.8h20.8z"/><path d="m68.9 173.1h8.5v8.6h-8.5z"/><path d="m146.5 164.9h-17.3v16.9h-17.1v17.2h8.5v17.1h8.6v8.7h8.6v-8.7-17.2h-8.5v-8.1h8.5l.1-17.2h8.6z"/><path d="m163.8 172.8v9.4h8.6v-8.6h8.6v-8.7h-8.6-17.3v7.9z"/><path d="m111.9 216.1h8.6v8.6h-8.6z"/><path d="m56.9 156.3h8.6v8.6h-8.6z"/><path d="m181 156.3h8.6v8.6h-8.6z"/><path d="m112 109.8h8.6v8.6h-8.6z"/><path d="m146.5 156.3h8.6v8.6h-8.6z"/><path d="m120.6 234.7h8.6v8.6h-8.6z"/><path d="m208.9 187.3h-8.8v57.9h-58.7v8.8h67.5z"/><path d="m49.5 187h-8.8v67.4h66.7v-8.8h-57.9z"/><path d="m102.8 397.8h26.7v10h-26.7z"/><path d="m192.8 492.7h11.3v10h-11.3z"/></g></svg>