<svg id="Capa_1" enable-background="new 0 0 609.806 609.806" height="512" viewBox="0 0 609.806 609.806" width="512" xmlns="http://www.w3.org/2000/svg"><g><g clip-rule="evenodd" fill-rule="evenodd"><path d="m493.225 520.129c30.435 0 47.129 5.775 55.502 23.168 5.308 11.026 6.913 30.639 6.913 30.639h-501.286c2.917-41.714 18.187-53.806 62.227-53.806h376.644zm-475.29 71.742c0 9.905 8.03 17.935 17.935 17.935h538.064c9.905 0 17.935-8.03 17.935-17.935 0-74.931-27.654-107.613-98.645-107.613h-376.643c-70.992 0-98.646 32.682-98.646 107.613zm286.968-367.678c-153.008 0-251.097 94.196-251.097 224.193 0 9.905 8.03 17.935 17.935 17.935h466.322c9.906 0 17.935-8.03 17.935-17.935.002-129.996-98.087-224.193-251.095-224.193zm-214.485 206.258c8.432-100.337 88.335-170.387 214.485-170.387 126.17 0 206.079 70.073 214.489 170.387z"/><path d="m286.968 233.161c0 9.905 8.03 17.935 17.935 17.935s17.935-8.03 17.935-17.935v-26.903h35.871c9.905 0 17.935-8.03 17.935-17.935s-8.03-17.935-17.935-17.935h-107.612c-9.905 0-17.935 8.03-17.935 17.935 0 9.906 8.03 17.935 17.935 17.935h35.871zm35.87-215.226c0-9.905-8.03-17.935-17.935-17.935s-17.935 8.03-17.935 17.935v62.775c0 9.905 8.03 17.935 17.935 17.935s17.935-8.03 17.935-17.935zm-275.485 93.835c-7.61-6.341-18.919-5.313-25.26 2.296s-5.313 18.919 2.296 25.26l53.806 44.839c7.61 6.341 18.919 5.313 25.26-2.296 6.341-7.61 5.313-18.919-2.296-25.26zm538.064 27.557c7.61-6.341 8.638-17.651 2.296-25.26s-17.651-8.638-25.26-2.296l-53.806 44.839c-7.61 6.341-8.638 17.651-2.296 25.26 6.341 7.61 17.651 8.638 25.26 2.296z"/></g></g></svg>