<svg id="Design" height="512" viewBox="0 0 100 100" width="512" xmlns="http://www.w3.org/2000/svg"><path id="Return" d="m73.76 38.48v23.07a1.74 1.74 0 0 1 -1.27 1.71l-21.8 7.65a1.59 1.59 0 0 1 -1.38 0l-21.9-7.65a1.73 1.73 0 0 1 -1.17-1.71l-.11-23.07a1.83 1.83 0 0 1 1.38-1.7l21.91-7.65a1.14 1.14 0 0 1 1.16 0l22 7.65a1.73 1.73 0 0 1 1.17 1.7zm-44.55 51.46a1.81 1.81 0 0 1 1.71-3.19 41.41 41.41 0 0 0 51.35-62.75.41.41 0 0 0 -.75.32l.32 1.28c.64 2.34-2.87 3.19-3.51 1l-2.55-9.79a1.74 1.74 0 0 1 2.22-2.14l9.68 2.55a1.82 1.82 0 0 1 -1 3.51l-1.91-.53c-.43-.11-.75.32-.43.63a45.06 45.06 0 0 1 -55.13 69.11zm42.64-79.31c2.12 1.17.32 4.36-1.7 3.19a41.43 41.43 0 0 0 -52.42 62.18.44.44 0 0 0 .75-.42l-.32-1.17c-.64-2.34 2.87-3.19 3.51-1l2.55 9.78a1.75 1.75 0 0 1 -2.22 2.18l-9.68-2.55c-2.34-.64-1.38-4.15.85-3.51l2 .53c.43.11.75-.32.43-.74-15.09-17.65-13.92-44.44 2.56-60.92a45.07 45.07 0 0 1 53.69-7.55zm-20.1 37.1v18.4a.47.47 0 0 0 .64.42l17.54-6.17c.11-.1.32-.21.32-.42v-18.39c0-.22-.32-.43-.63-.32l-17.55 6.06c-.21.1-.32.21-.32.42zm-3.61 18.4v-18.4a.55.55 0 0 0 -.21-.42l-7.13-2.45a.47.47 0 0 0 -.63.43v6.8a1.8 1.8 0 0 1 -1.81 1.81 1.86 1.86 0 0 1 -1.81-1.81v-8.4a.55.55 0 0 0 -.21-.42l-6-2c-.31-.11-.63.1-.63.32v18.41c0 .21.1.32.32.42l17.54 6.17c.32.11.53-.11.53-.42zm-13.5-27.22 4.68 1.59a.19.19 0 0 0 .31 0l15.21-5.31c.21 0 .32-.21.32-.43a.35.35 0 0 0 -.32-.32l-4.68-1.7h-.32l-15.2 5.32a.44.44 0 0 0 0 .85zm11.48 4 3.72 1.27h.32l15.2-5.31a.44.44 0 0 0 0-.85l-3.82-1.38h-.32l-15.1 5.46c-.43.1-.43.64 0 .85zm19.56 12.27a1.8 1.8 0 0 1 1.17 3.4l-5.95 2.12a1.8 1.8 0 0 1 -1.17-3.4z"/></svg>