<svg id="line" viewBox="0 0 64 64" xmlns="http://www.w3.org/2000/svg"><path d="m29.1644 13.90262h5.71885a2.00369 2.00369 0 0 0 2.0014-2.0014v-5.71836a2.00369 2.00369 0 0 0 -2.0014-2.0014h-5.71885a2.00369 2.00369 0 0 0 -2.0014 2.0014v5.71836a2.00369 2.00369 0 0 0 2.0014 2.0014zm0-7.71976h5.71885l.001 5.71836h-5.71985z"/><path d="m55.18261 27.34073c-6.42252.20419-6.42106 9.51747.00012 9.72067 6.42381-.20388 6.42227-9.51777-.00012-9.72067zm0 7.71927a2.85912 2.85912 0 0 1 .00006-5.71787 2.85912 2.85912 0 0 1 -.00006 5.71787z"/><path d="m13.40338 36.04507a2.128 2.128 0 0 0 .09479-2.08447l-2.71772-5.434a2.15468 2.15468 0 0 0 -3.83081-.00043l-2.71772 5.43443a2.155 2.155 0 0 0 1.91546 3.09976l5.43441.00007a2.12686 2.12686 0 0 0 1.82159-1.01536zm-7.25606-.986a.13055.13055 0 0 1 -.11922-.06646.133.133 0 0 1 -.00587-.13779l2.71777-5.43402c.02223-.08282.22055-.11281.25017.00049l2.71772 5.43349c.04471.05772-.02107.22568-.12606.20418z"/><path d="m35.17642 51.9048a2.00259 2.00259 0 0 0 -1.73363-1.00266h-2.83792a2.00212 2.00212 0 0 0 -1.73266 1.0007l-1.419 2.4568a2.01015 2.01015 0 0 0 0 2.0014l1.418 2.45484a2.00261 2.00261 0 0 0 1.73364 1.00266h2.83792a2.00213 2.00213 0 0 0 1.73266-1.0007l1.419-2.4568a2.01015 2.01015 0 0 0 0-2.0014zm-1.73363 5.91234h-2.837l-1.419-2.4568 1.418-2.4568h2.83694l1.419 2.4568z"/><path d="m40.65584 14.83247a1.00061 1.00061 0 0 0 1.79814-.87763l-.83072-1.70279a22.13647 22.13647 0 0 1 11.08692 12.02062 1.0013 1.0013 0 0 0 1.87039-.71443 24.15765 24.15765 0 0 0 -12.06973-13.11489l1.38555-.67546a1.00086 1.00086 0 0 0 -.87756-1.79911l-3.71452 1.81133a1.0065 1.0065 0 0 0 -.46028 1.33833z"/><path d="m9.60287 24.92009a1.00694 1.00694 0 0 0 1.33785.46078l3.71451-1.81133a1.00106 1.00106 0 0 0 -.87763-1.79911l-1.70267.83066a22.137 22.137 0 0 1 12.01952-11.08637 1.0007 1.0007 0 0 0 -.71345-1.86947 24.1508 24.1508 0 0 0 -13.11513 12.06862l-.67571-1.38537a1.0006 1.0006 0 0 0 -1.79807.87763z"/><path d="m23.39181 49.57016a1.00062 1.00062 0 0 0 -1.79813.87762l.8306 1.70249a22.14234 22.14234 0 0 1 -11.0868-12.01934 1.00113 1.00113 0 0 0 -1.87039.71345 24.15832 24.15832 0 0 0 12.07009 13.115l-1.38592.67588a1.00585 1.00585 0 0 0 .43982 1.89971c.10072.17438 3.95584-1.86056 4.15226-1.91339a1.00606 1.00606 0 0 0 .46029-1.33785z"/><path d="m54.44479 39.482a1.00654 1.00654 0 0 0 -1.33785-.46028l-3.71451 1.81181a1.00059 1.00059 0 0 0 .87762 1.79808l1.703-.83072a22.13417 22.13417 0 0 1 -12.01983 11.086 1.00115 1.00115 0 0 0 .71346 1.87039 24.15352 24.15352 0 0 0 13.11511-12.06871l.6757 1.38555a1.0006 1.0006 0 0 0 1.79808-.87763z"/><path d="m16.54913 32.00024a15.4747 15.4747 0 1 0 30.94939 0c-.84935-20.52742-30.10102-20.52624-30.94939 0zm15.4747 13.4733a13.43459 13.43459 0 0 1 -10.15194-4.64314 3.888 3.888 0 0 1 2.63887-3.4534c1.59645-.44324 5.87129-2.23856 7.51307-2.11677 1.61917-.12784 5.94428 1.68233 7.51111 2.11671a3.88733 3.88733 0 0 1 2.64083 3.45341 13.43461 13.43461 0 0 1 -10.15194 4.64319zm.00012-21.8483c6.35919.20162 6.36755 9.419.01032 9.63266-6.37268-.18879-6.38142-9.43024-.01027-9.63266zm13.47317 8.375a13.37383 13.37383 0 0 1 -1.80961 6.71454 5.88345 5.88345 0 0 0 -3.51736-3.23554l-4.28107-1.42678c5.44265-3.69246 2.80292-12.4412-3.86544-12.42862-6.66817-.01069-9.30827 8.73487-3.865 12.42856l-4.28309 1.42684a5.88315 5.88315 0 0 0 -3.5154 3.23548 13.37362 13.37362 0 0 1 -1.80962-6.71448c.74047-17.8753 26.20932-17.86913 26.94659 0z"/></svg>