<?xml version="1.0" encoding="UTF-8" standalone="no"?>
<!-- Created with Inkscape (http://www.inkscape.org/) -->

<svg
   version="1.1"
   id="svg471"
   xml:space="preserve"
   width="682.66669"
   height="682.66669"
   viewBox="0 0 682.66669 682.66669"
   xmlns="http://www.w3.org/2000/svg"
   xmlns:svg="http://www.w3.org/2000/svg"><defs
     id="defs475"><clipPath
       clipPathUnits="userSpaceOnUse"
       id="clipPath485"><path
         d="M 0,512 H 512 V 0 H 0 Z"
         id="path483" /></clipPath></defs><g
     id="g477"
     transform="matrix(1.3333333,0,0,-1.3333333,0,682.66667)"><g
       id="g479"><g
         id="g481"
         clip-path="url(#clipPath485)"><g
           id="g487"
           transform="translate(221.54,128.1987)"><path
             d="m 0,0 v 73.918 m 0,-190.117 v 80.665 M 71.618,73.918 v -190.117"
             style="fill:none;stroke:#000000;stroke-width:15;stroke-linecap:round;stroke-linejoin:round;stroke-miterlimit:10;stroke-dasharray:none;stroke-opacity:1"
             id="path489" /></g><g
           id="g491"
           transform="translate(52.647,132.5317)"><path
             d="m 0,0 252.176,140.538 c 7.069,3.954 9.629,12.94 5.701,20.005 l -15.213,27.277 c -3.956,7.066 -12.945,9.625 -20.014,5.67 L -29.555,52.952 c -7.04,-3.926 -9.6,-12.911 -5.673,-19.977 L -20.014,5.67 C -16.086,-1.367 -7.069,-3.926 0,0 Z"
             style="fill:none;stroke:#000000;stroke-width:15;stroke-linecap:round;stroke-linejoin:round;stroke-miterlimit:10;stroke-dasharray:none;stroke-opacity:1"
             id="path493" /></g><g
           id="g495"
           transform="translate(189.5996,278.2744)"><path
             d="m 0,0 29.526,-52.953 m -80.781,-45.013 -29.526,52.952"
             style="fill:none;stroke:#000000;stroke-width:15;stroke-linecap:round;stroke-linejoin:round;stroke-miterlimit:10;stroke-dasharray:none;stroke-opacity:1"
             id="path497" /></g><g
           id="g499"
           transform="translate(92.79,224.3042)"><path
             d="M 0,0 C -139.687,-16.575 -91.486,156.706 27.606,63.421"
             style="fill:none;stroke:#000000;stroke-width:15;stroke-linecap:round;stroke-linejoin:round;stroke-miterlimit:10;stroke-dasharray:none;stroke-opacity:1"
             id="path501" /></g><g
           id="g503"
           transform="translate(177.0332,202.1172)"><path
             d="m 0,0 h 214.156 c 5.876,0 10.705,-4.827 10.705,-10.701 v -35.767 -124.515 c 0,-10.527 -8.61,-19.134 -19.141,-19.134 H -45.089 c -10.53,0 -19.14,8.607 -19.14,19.134 v 134.925"
             style="fill:none;stroke:#000000;stroke-width:15;stroke-linecap:round;stroke-linejoin:round;stroke-miterlimit:10;stroke-dasharray:none;stroke-opacity:1"
             id="path505" /></g><g
           id="g507"
           transform="translate(108.8184,233.2603)"><path
             d="M 0,0 80.781,45.014 70.571,63.305 C 64.957,73.395 52.099,77.03 42.034,71.417 L -2.094,46.817 C -12.188,41.205 -15.825,28.381 -10.21,18.32 Z"
             style="fill:none;stroke:#000000;stroke-width:15;stroke-linecap:round;stroke-linejoin:round;stroke-miterlimit:10;stroke-dasharray:none;stroke-opacity:1"
             id="path509" /></g><g
           id="g511"
           transform="translate(96.0483,263.4443)"><path
             d="M 0,0 C -12.072,4.391 -21.352,6.688 -37.555,8.462"
             style="fill:none;stroke:#000000;stroke-width:15;stroke-linecap:round;stroke-linejoin:round;stroke-miterlimit:10;stroke-dasharray:none;stroke-opacity:1"
             id="path513" /></g><g
           id="g515"
           transform="translate(148.002,366.354)"><path
             d="m 0,0 c -8.785,-15.179 -13.41,-37.715 -9.949,-68.8 m 68.477,-9.858 C 115.456,-7.095 62.28,39.14 22.748,21.373"
             style="fill:none;stroke:#000000;stroke-width:15;stroke-linecap:round;stroke-linejoin:round;stroke-miterlimit:10;stroke-dasharray:none;stroke-opacity:1"
             id="path517" /></g><g
           id="g519"
           transform="translate(171.5063,304.5322)"><path
             d="M 0,0 C 0.843,10.643 6.021,26.666 12.538,37.367"
             style="fill:none;stroke:#000000;stroke-width:15;stroke-linecap:round;stroke-linejoin:round;stroke-miterlimit:10;stroke-dasharray:none;stroke-opacity:1"
             id="path521" /></g><g
           id="g523"
           transform="translate(371.147,378.4507)"><path
             d="M 0,0 C 0,0 10.356,-95.611 -24.435,-133.326"
             style="fill:none;stroke:#000000;stroke-width:15;stroke-linecap:round;stroke-linejoin:round;stroke-miterlimit:10;stroke-dasharray:none;stroke-opacity:1"
             id="path525" /></g><g
           id="g527"
           transform="translate(422.7227,349.6338)"><path
             d="M 0,0 C 0,0 15.01,66.125 81.77,82.06"
             style="fill:none;stroke:#000000;stroke-width:15;stroke-linecap:round;stroke-linejoin:round;stroke-miterlimit:10;stroke-dasharray:none;stroke-opacity:1"
             id="path529" /></g><g
           id="g531"
           transform="translate(309.6226,486.333)"><path
             d="m 0,0 -11.548,-19.279 c -1.251,-2.094 -1.426,-2.792 -4.015,-3.431 l -22.864,-5.671 c -4.422,-1.105 -4.654,-2.122 -1.629,-5.554 l 14.748,-17.738 c 1.571,-1.89 1.804,-4.1 1.6,-6.775 l -1.774,-21.926 c -0.495,-4.536 0.465,-5.088 4.712,-3.373 l 20.101,8.375 c 2.095,0.872 5.382,0.872 7.447,0 l 20.13,-8.375 c 4.247,-1.715 5.178,-1.163 4.683,3.373 l -1.745,21.926 c -0.203,2.675 0,4.885 1.6,6.775 l 14.719,17.738 c 3.025,3.432 2.822,4.449 -1.629,5.554 l -22.864,5.671 c -2.589,0.639 -2.735,1.337 -4.014,3.431 L 6.109,0 C 3.782,3.926 2.356,3.926 0,0 Z"
             style="fill:none;stroke:#000000;stroke-width:15;stroke-linecap:round;stroke-linejoin:round;stroke-miterlimit:10;stroke-dasharray:none;stroke-opacity:1"
             id="path533" /></g><g
           id="g535"
           transform="translate(456.3208,313.9248)"><path
             d="m 0,0 -11.578,-19.279 c -1.251,-2.094 -1.425,-2.792 -3.985,-3.431 l -22.864,-5.671 c -4.451,-1.105 -4.683,-2.122 -1.629,-5.554 l 14.719,-17.738 c 1.6,-1.89 1.804,-4.1 1.6,-6.775 l -1.774,-21.897 c -0.466,-4.565 0.465,-5.117 4.712,-3.402 l 20.101,8.375 c 2.094,0.872 5.381,0.872 7.476,0 l 20.1,-8.375 c 4.247,-1.715 5.179,-1.163 4.713,3.402 l -1.775,21.897 c -0.203,2.675 0,4.885 1.601,6.775 l 14.719,17.738 c 3.054,3.432 2.822,4.449 -1.629,5.554 l -22.864,5.671 c -2.56,0.639 -2.735,1.337 -3.986,3.431 L 6.109,0 C 3.752,3.926 2.327,3.926 0,0 Z"
             style="fill:none;stroke:#000000;stroke-width:15;stroke-linecap:round;stroke-linejoin:round;stroke-miterlimit:10;stroke-dasharray:none;stroke-opacity:1"
             id="path537" /></g><g
           id="g539"
           transform="translate(432.002,440.0103)"><path
             d="M 0,0 C 16.552,0 30.021,13.464 30.021,29.98 30.021,46.526 16.552,59.99 0,59.99 -16.523,59.99 -30.02,46.526 -30.02,29.98 -30.02,13.464 -16.523,0 0,0 Z"
             style="fill:none;stroke:#000000;stroke-width:15;stroke-linecap:round;stroke-linejoin:round;stroke-miterlimit:10;stroke-dasharray:none;stroke-opacity:1"
             id="path541" /></g></g></g></g></svg>
