<svg id="&#x421;&#x43B;&#x43E;&#x439;_1" height="512" viewBox="0 0 128 128" width="512" xmlns="http://www.w3.org/2000/svg"><path d="m81 63.47a12.68 12.68 0 1 0 -15.23 0 21.28 21.28 0 0 0 -5.82 3.36 15.4 15.4 0 0 0 -2.68-1.58 9.46 9.46 0 1 0 -12.92 0 15.48 15.48 0 0 0 -9 14 2 2 0 0 0 4 0 11.46 11.46 0 0 1 17.72-9.61 21.18 21.18 0 0 0 -5 13.63 2 2 0 0 0 4 0 17.28 17.28 0 1 1 34.57 0 2 2 0 0 0 4 0 21.3 21.3 0 0 0 -13.64-19.8zm-35.65-5.1a5.46 5.46 0 1 1 5.46 5.46 5.46 5.46 0 0 1 -5.46-5.46zm19.36-5a8.68 8.68 0 1 1 8.67 8.63 8.69 8.69 0 0 1 -8.67-8.64z"/><path d="m126 62h-10.05a52.05 52.05 0 0 0 -49.95-49.95v-10.05a2 2 0 0 0 -4 0v10.05a52.05 52.05 0 0 0 -49.95 49.95h-10.05a2 2 0 0 0 0 4h10.05a52.05 52.05 0 0 0 49.95 49.95v10.05a2 2 0 0 0 4 0v-10.05a52.05 52.05 0 0 0 49.95-49.95h10.05a2 2 0 0 0 0-4zm-60 49.95v-9.95a2 2 0 0 0 -4 0v9.95a48.05 48.05 0 0 1 -45.95-45.95h9.95a2 2 0 0 0 0-4h-9.95a48.05 48.05 0 0 1 45.95-45.95v8.95a2 2 0 0 0 4 0v-8.95a48.05 48.05 0 0 1 45.95 45.95h-9.95a2 2 0 0 0 0 4h9.95a48.05 48.05 0 0 1 -45.95 45.95z"/></svg>