<?xml version="1.0"?>
<svg xmlns="http://www.w3.org/2000/svg" viewBox="0 0 32 32"><g id="Layer_2" data-name="Layer 2"><path d="M15,24.75H5A2.7528,2.7528,0,0,1,2.25,22V21a7.75,7.75,0,0,1,15.5,0v1A2.7528,2.7528,0,0,1,15,24.75Zm-5-10A6.257,6.257,0,0,0,3.75,21v1A1.25116,1.25116,0,0,0,5,23.25H15A1.25116,1.25116,0,0,0,16.25,22V21A6.257,6.257,0,0,0,10,14.75Z"/><path d="M10,14.75A5.25,5.25,0,1,1,15.25,9.5,5.25574,5.25574,0,0,1,10,14.75Zm0-9A3.75,3.75,0,1,0,13.75,9.5,3.7541,3.7541,0,0,0,10,5.75Z"/><path d="M27,25.75H19A2.7528,2.7528,0,0,1,16.25,23a6.75,6.75,0,0,1,13.5,0A2.7528,2.7528,0,0,1,27,25.75Zm-4-8A5.25574,5.25574,0,0,0,17.75,23,1.25116,1.25116,0,0,0,19,24.25h8A1.25116,1.25116,0,0,0,28.25,23,5.25574,5.25574,0,0,0,23,17.75Z"/><path d="M23,17.75A4.75,4.75,0,1,1,27.75,13,4.7554,4.7554,0,0,1,23,17.75Zm0-8A3.25,3.25,0,1,0,26.25,13,3.25377,3.25377,0,0,0,23,9.75Z"/></g></svg>
