<svg enable-background="new 0 0 64 64" viewBox="0 0 64 64" xmlns="http://www.w3.org/2000/svg"><g id="Layer_1"/><g id="Payment_Terminal"/><g id="ATM"/><g id="Scale"/><g id="Stack_of_Coin"/><g id="Diamond"/><g id="Save_Money"/><g id="Tax"/><g id="Protection"/><g id="Document"/><g id="Safebox"/><g id="Wallet"/><g id="Security_Bank"/><g id="Banker"/><g id="Money"/><g id="Credit_card"/><g id="Payment"/><g id="Money_Truck"/><g id="Time_is_Money"><g><path d="m42.585 41.414c.391.39.902.586 1.414.586s1.023-.195 1.414-.586c.781-.781.781-2.047 0-2.828l-9.413-9.415v-14.171c0-1.104-.896-2-2-2s-2 .896-2 2v15c0 .53.211 1.039.586 1.414z"/><path d="m54.616 50.371c5.18-5.241 8.384-12.438 8.384-20.371s-3.204-15.13-8.384-20.371c-.038-.045-.068-.093-.111-.135-.042-.042-.09-.073-.135-.11-5.24-5.179-12.437-8.384-20.37-8.384s-15.13 3.205-20.372 8.384c-.044.037-.092.068-.134.11s-.072.09-.109.134c-5.18 5.241-8.385 12.438-8.385 20.372 0 .397.032.793.048 1.191-2.519 1.436-4.048 3.473-4.048 5.809v18c0 4.561 5.804 8 13.5 8 5.8 0 10.522-1.955 12.499-4.869 2.282.566 4.628.869 7.001.869 7.933 0 15.13-3.205 20.371-8.384.045-.037.093-.068.135-.11s.073-.091.11-.135zm-39.639-36.566 1.345 1.345c.39.391.902.586 1.414.586s1.024-.195 1.414-.586c.781-.781.781-2.047 0-2.828l-1.345-1.345c3.89-3.316 8.803-5.461 14.195-5.89v1.913c0 1.104.896 2 2 2s2-.896 2-2v-1.913c5.392.429 10.305 2.574 14.195 5.89l-1.345 1.345c-.781.781-.781 2.047 0 2.828.391.391.902.586 1.414.586s1.023-.195 1.414-.586l1.345-1.345c3.316 3.89 5.461 8.803 5.89 14.195h-1.913c-1.104 0-2 .896-2 2s.896 2 2 2h1.913c-.429 5.392-2.574 10.305-5.89 14.195l-1.345-1.345c-.781-.781-2.047-.781-2.828 0s-.781 2.047 0 2.828l1.345 1.345c-3.89 3.316-8.803 5.461-14.195 5.89v-1.913c0-1.104-.896-2-2-2s-2 .896-2 2v1.916c-1.353-.107-2.688-.332-4-.655v-17.261c0-4.561-5.804-8-13.5-8-1.979 0-3.829.231-5.491.646.085-6.036 2.317-11.558 5.968-15.841zm-9.977 28.978c2.403 1.384 5.721 2.217 9.5 2.217s7.097-.833 9.5-2.217v3.217c0 1.631-3.701 4-9.5 4s-9.5-2.369-9.5-4zm9.5-9.783c5.799 0 9.5 2.369 9.5 4s-3.701 4-9.5 4-9.5-2.369-9.5-4 3.701-4 9.5-4zm0 26c-5.799 0-9.5-2.369-9.5-4v-3.217c2.403 1.384 5.721 2.217 9.5 2.217s7.097-.833 9.5-2.217v3.217c0 1.631-3.701 4-9.5 4z"/></g></g><g id="Cheque"/><g id="Bank"/></svg>