<svg id="Layer_1" enable-background="new 0 0 2000 2000" height="512" viewBox="0 0 2000 2000" width="512" xmlns="http://www.w3.org/2000/svg"><g><g><g><g><path d="m1012.3 1253.43c-11.21 0-22.43-.55-33.6-1.65-46.17-4.56-90.21-18.49-127.37-40.29-110.55-64.85-339.96-201.13-466.88-276.59-35.09-20.87-64.06-48.25-83.76-79.2-20.3-31.89-30.91-67.66-30.67-103.46l.02-3.48v-24.71c0-44.91 18.9-89.19 53.22-124.69 33.3-34.44 78.81-59.26 131.61-71.79 157.41-37.35 366.71-87.65 469.9-115.21 31.84-8.5 66.32-11.27 99.71-8 33.58 3.29 66.27 12.7 94.55 27.21 168.79 86.64 464.33 238.83 547.29 284.74 39.18 21.68 64.02 73.28 59.05 122.69-2.82 28.04-14.88 54.36-34.88 76.11-.45.49-.9.97-1.36 1.46 5.2 5.98 9.57 12.68 13 20.01 8.49 18.15 10.56 39.43 5.83 59.94-8.72 37.73-26.02 57.56-61.71 70.73-.41.15-.82.29-1.23.42l-530.7 170.09c-32.4 10.36-67.13 15.67-102.02 15.67zm-15.59-790.41c-19.03 0-38.14 2.41-56.48 7.3-103.86 27.74-313.75 78.18-471.53 115.62-81.66 19.37-138.68 76.16-138.68 138.1v24.79.19l-.02 3.6c-.33 50.7 30.69 98.34 85.1 130.7 126.86 75.43 356.16 211.64 466.57 276.41 60.9 35.72 143.02 43.72 214.32 20.87l530.05-169.88c15.83-5.91 19.38-10.2 23.43-27.73 1.17-5.08 3.41-20.48-9.25-30.47-12.72 6.57-26.74 12.28-42.02 17.09-.03.01-.07.02-.1.03-4.52 1.41-452.71 140.89-545.52 172.61-24.11 8.24-42.12 4.41-52.98-.25-14.83-6.36-26.63-18.6-33.23-34.45-7.69-18.46-8.14-40.99-1.23-61.81 7.58-22.85 22.94-40.97 43.26-51.04 1.25-.62 2.54-1.15 3.87-1.59l508.3-168.71c15.72-5.22 32.7 3.3 37.92 19.02 5.22 15.73-3.3 32.7-19.02 37.92l-505.88 167.9c-12.21 7.29-15.69 25.99-11.83 35.23.67 1.61 1.33 2.31 1.5 2.38.72.31 3.91.66 9.92-1.39 93.48-31.95 527.56-167.04 547.03-173.1 51.59-16.25 81.93-44.45 85.45-79.39 2.85-28.36-12.53-55.4-28.41-64.19-85.32-47.21-410-214.24-545.64-283.86-28.17-14.44-61.39-21.9-94.9-21.9z"/></g></g></g><g><g><g><path d="m1029.18 1490.65c-10.75 0-19.34-2.4-25.58-5.08-14.83-6.36-26.63-18.6-33.23-34.45-7.69-18.46-8.14-40.99-1.23-61.81 7.58-22.85 22.94-40.97 43.26-51.04 1.25-.62 2.54-1.15 3.87-1.59l508.3-168.71c15.73-5.22 32.7 3.3 37.92 19.02s-3.3 32.7-19.02 37.92l-505.88 167.9c-12.21 7.29-15.69 25.99-11.83 35.23.67 1.61 1.33 2.31 1.5 2.38.72.31 3.91.66 9.92-1.39 93.5-31.96 527.83-167.13 547.05-173.11 51.58-16.26 81.92-44.45 85.43-79.39 2.85-28.36-12.53-55.4-28.41-64.19-13.76-7.61-34.54-18.78-61.77-33.19-14.64-7.75-20.23-25.91-12.48-40.55s25.91-20.23 40.55-12.48c27.56 14.59 48.67 25.93 62.75 33.72 39.18 21.68 64.02 73.28 59.05 122.69-2.82 28.04-14.88 54.36-34.88 76.11-21.87 23.78-52.91 42.13-92.27 54.52-.03.01-.07.02-.1.03-4.52 1.41-452.71 140.89-545.52 172.61-10.26 3.53-19.43 4.85-27.4 4.85z"/></g></g><g><g><path d="m1016.29 1596.99c-11.21 0-22.43-.55-33.6-1.65-46.17-4.56-90.22-18.49-127.38-40.29-110.5-64.82-339.94-201.12-466.88-276.59-35.09-20.87-64.06-48.25-83.76-79.2-20.3-31.89-30.91-67.66-30.67-103.46l.02-3.51v-24.68c0-67.4 41.67-130.44 111.49-168.63 14.54-7.95 32.77-2.61 40.72 11.92 7.95 14.54 2.61 32.77-11.92 40.72-50.27 27.5-80.28 70.86-80.28 115.98v24.79.22l-.02 3.58c-.33 50.7 30.69 98.34 85.1 130.7 126.88 75.44 356.2 211.66 466.57 276.41 60.9 35.72 143.02 43.72 214.32 20.87l530.06-169.88c15.83-5.91 19.38-10.2 23.43-27.73 1.37-5.94 4.2-26.03-17.1-35.02-15.27-6.44-22.42-24.04-15.98-39.3s24.04-22.42 39.3-15.98c21.1 8.9 37.15 24.07 46.41 43.87 8.49 18.15 10.56 39.43 5.83 59.94-8.72 37.73-26.02 57.56-61.71 70.73-.41.15-.81.29-1.23.42l-530.7 170.09c-32.4 10.38-67.14 15.68-102.02 15.68z"/></g></g></g></g></svg>