<svg id="Capa_1" enable-background="new 0 0 512 512" height="512" viewBox="0 0 512 512" width="512" xmlns="http://www.w3.org/2000/svg" xmlns:xlink="http://www.w3.org/1999/xlink"><linearGradient id="SVGID_1_" gradientUnits="userSpaceOnUse" x1="256" x2="256" y1="512" y2="0"><stop offset="0" stop-color="#fd5900"/><stop offset="1" stop-color="#ffde00"/></linearGradient><g><g><g><path d="m256 391c-16.553 0-30 13.462-30 30v61c0 16.538 13.447 30 30 30s30-13.462 30-30v-61c0-16.538-13.447-30-30-30zm0-391c-16.553 0-30 13.462-30 30v61c0 16.538 13.447 30 30 30s30-13.462 30-30v-61c0-16.538-13.447-30-30-30zm133.506 347.069c-11.77-11.771-30.814-11.638-42.451 0-11.701 11.701-11.679 30.743 0 42.422l51.211 51.196c11.7 11.73 30.753 11.713 42.451.015 11.689-11.689 11.689-30.732 0-42.422zm-275.772-275.757c-11.677-11.707-30.766-11.7-42.451-.015-11.689 11.689-11.689 30.732 0 42.422l51.211 51.196c11.724 11.754 30.773 11.692 42.451.015 11.689-11.689 11.689-30.732 0-42.422zm368.266 154.688h-61c-16.553 0-30 13.462-30 30s13.447 30 30 30h61c16.553 0 30-13.462 30-30s-13.447-30-30-30zm-361 30c0-16.538-13.447-30-30-30h-61c-16.553 0-30 13.462-30 30s13.447 30 30 30h61c16.553 0 30-13.462 30-30zm1.494 91.069-51.211 51.211c-11.689 11.689-11.689 30.732 0 42.407 11.724 11.754 30.773 11.692 42.451.015l51.211-51.211c11.747-11.747 11.629-30.809 0-42.407-11.677-11.707-30.766-11.7-42.451-.015z" fill="url(#SVGID_1_)"/></g></g></g></svg>