<svg id="Layer_1" enable-background="new 0 0 512 512" height="512" viewBox="0 0 512 512" width="512" xmlns="http://www.w3.org/2000/svg"><g><g><g><g><path d="m256 0c-141.385 0-256 114.615-256 256s114.615 256 256 256 256-114.615 256-256-114.615-256-256-256zm0 450.189c-107.076 0-194.189-87.113-194.189-194.189s87.113-194.189 194.189-194.189 194.189 87.113 194.189 194.189-87.113 194.189-194.189 194.189z" fill="#eef5f6"/><g><g><g><path d="m142.504 319.489c-1.038 0-2.094-.21-3.106-.655-3.906-1.717-5.681-6.277-3.964-10.183l45.88-104.369h-51.541c-4.268 0-7.726-3.459-7.726-7.726s3.459-7.726 7.726-7.726h63.377c2.61 0 5.043 1.318 6.47 3.503s1.654 4.944.604 7.333l-50.643 115.204c-1.272 2.895-4.105 4.619-7.077 4.619z" fill="#fe76a8"/></g><g><path d="m240.396 323.17c-21.38.002-39.59-15.753-42.551-36.979-.275-1.968-.414-3.981-.414-5.982 0-4.268 3.459-7.726 7.726-7.726 4.268 0 7.726 3.459 7.726 7.726 0 1.289.09 2.582.266 3.846 1.923 13.768 13.928 23.914 27.815 23.657 14.341-.29 26.157-11.722 26.898-26.029.396-7.634-2.275-14.881-7.521-20.407-5.25-5.53-12.335-8.575-19.949-8.575-9.98 0-14.301 1.599-19.316 3.856-.661.297-1.059.496-1.137.535-2.598 1.327-5.729 1.08-8.082-.641-2.354-1.721-3.547-4.618-3.07-7.494l8.575-51.756c.618-3.729 3.843-6.464 7.623-6.464h43.285c4.268 0 7.726 3.459 7.726 7.726 0 4.268-3.459 7.726-7.726 7.726h-36.733l-5.363 32.368c3.961-.853 8.467-1.311 14.219-1.311 11.893 0 22.958 4.755 31.155 13.388 8.193 8.631 12.365 19.941 11.747 31.848-1.16 22.358-19.618 40.226-42.019 40.677-.293.008-.588.011-.88.011z" fill="#fe76a8"/></g><g fill="#fe76a8"><path d="m317.73 319.686c-.997 0-2.01-.194-2.987-.604-3.935-1.652-5.786-6.18-4.135-10.115l47.781-113.85c1.652-3.935 6.18-5.784 10.115-4.135 3.935 1.652 5.786 6.18 4.135 10.115l-47.781 113.85c-1.241 2.958-4.109 4.739-7.128 4.739z"/><g><path d="m315.572 239.651c-12.284 0-22.277-11.051-22.277-24.635s9.993-24.635 22.277-24.635 22.278 11.051 22.278 24.635-9.994 24.635-22.278 24.635zm0-33.817c-3.699 0-6.824 4.205-6.824 9.182s3.125 9.182 6.824 9.182 6.825-4.205 6.825-9.182-3.125-9.182-6.825-9.182z"/><path d="m367.675 319.684c-12.284 0-22.277-11.051-22.277-24.635s9.993-24.635 22.277-24.635 22.278 11.051 22.278 24.635-9.994 24.635-22.278 24.635zm0-33.817c-3.699 0-6.824 4.205-6.824 9.182s3.125 9.182 6.824 9.182 6.825-4.205 6.825-9.182-3.126-9.182-6.825-9.182z"/></g></g></g></g></g></g></g><g><path d="m256 0v61.811c107.076 0 194.189 87.113 194.189 194.189s-87.113 194.189-194.189 194.189-194.189-87.113-194.189-194.189h-61.811c0 141.385 114.615 256 256 256s256-114.615 256-256-114.615-256-256-256z" fill="#fe76a8"/><g><path d="m256 0v3.299c121.793 19.709 214.793 125.344 214.793 252.701 0 134.449-103.646 244.69-235.396 255.183 6.796.541 13.667.817 20.603.817 141.385 0 256-114.615 256-256s-114.615-256-256-256z" fill="#fe5694"/></g><path d="m256.197 488.821c-.132.001-.261.001-.394 0-.002 0-.004 0-.007 0-56.462-.05-110.942-20.65-153.402-58.003-41.957-36.908-69.28-87.474-76.967-142.417-.096-.484-.146-.984-.146-1.496 0-4.268 3.448-7.726 7.715-7.726h.023c3.859 0 7.127 2.847 7.654 6.671 7.096 51.442 32.64 98.806 71.927 133.365 39.643 34.874 90.502 54.106 143.21 54.153h.38c119.646-.107 217.071-97.532 217.178-217.178 0-.063.001-.127.002-.19-.001-.063-.002-.127-.002-.19-.047-52.708-19.279-103.567-54.153-143.21-34.559-39.287-81.924-64.831-133.365-71.927-3.824-.527-6.671-3.795-6.671-7.654 0-4.268 3.459-7.738 7.726-7.738.517 0 1.023.051 1.512.148 54.939 7.69 105.494 35.01 142.4 76.965 37.353 42.461 57.953 96.941 58.003 153.402 0 .068-.001.137-.002.204.001.067.002.136.002.204-.115 128.151-104.466 232.502-232.617 232.617-.001 0-.004 0-.006 0z" fill="#fff"/></g></g></svg>